<svg version="1.1" id="Layer_1" xmlns="http://www.w3.org/2000/svg" xmlns:xlink="http://www.w3.org/1999/xlink" x="0px" y="0px"
	 width="100%" viewBox="0 0 834 901" enable-background="new 0 0 834 901" xml:space="preserve">
<path fill="#FFFFFF" opacity="1.000000" stroke="none" 
	d="
M1.000000,491.000000 
	C1.000000,464.979095 1.000000,438.958221 1.468657,412.468658 
	C126.822815,412.000000 251.708313,412.000000 376.641968,412.000000 
	C376.641968,383.432678 376.641968,355.253754 376.641968,327.000000 
	C251.189301,327.000000 126.094650,327.000000 1.000000,327.000000 
	C1.000000,301.312439 1.000000,275.624878 1.463884,249.468658 
	C279.618500,249.000000 557.309265,249.000000 835.000000,249.000000 
	C835.000000,274.687561 835.000000,300.375122 834.531372,326.531342 
	C709.510498,327.000000 584.958374,327.000000 460.358002,327.000000 
	C460.358002,355.567322 460.358002,383.746216 460.358002,412.000000 
	C585.477295,412.000000 710.238647,412.000000 835.000000,412.000000 
	C835.000000,438.020905 835.000000,464.041779 834.531372,490.531342 
	C711.368103,491.000000 588.673584,490.999237 465.979004,491.006958 
	C463.984985,491.007080 461.990967,491.110809 459.533752,491.091797 
	C432.698059,491.011597 406.325562,491.001617 379.953064,491.007233 
	C377.638580,491.007721 375.324127,491.110260 372.545288,491.094238 
	C248.387268,491.015411 124.693634,491.007721 1.000000,491.000000 
z"/>
<path fill="#FFFFFF" opacity="1.000000" stroke="none" 
	d="
M1.000000,817.000000 
	C1.000000,790.979126 1.000000,764.958191 1.466985,738.468628 
	C279.622650,738.000000 557.311340,738.000000 835.000000,738.000000 
	C835.000000,764.020874 835.000000,790.041809 834.531372,816.531372 
	C709.430054,817.000000 584.797424,817.000000 460.000000,817.000000 
	C460.000000,845.751587 460.000000,873.875793 460.000000,902.000000 
	C432.645782,902.000000 405.291534,902.000000 377.468658,901.531372 
	C377.000000,873.146912 377.000000,845.231079 377.000000,817.000000 
	C251.349823,817.000000 126.174911,817.000000 1.000000,817.000000 
z"/>
<path fill="#FFFFFF" opacity="1.000000" stroke="none" 
	d="
M377.000000,1.000000 
	C404.354218,1.000000 431.708466,1.000000 459.531342,1.468657 
	C460.000000,29.519913 460.000000,57.102509 460.000000,85.000000 
	C585.317078,85.000000 710.158569,85.000000 835.000000,85.000000 
	C835.000000,111.020897 835.000000,137.041794 834.536133,163.531342 
	C556.381531,164.000000 278.690765,164.000000 1.000000,164.000000 
	C1.000000,137.979111 1.000000,111.958214 1.468657,85.468658 
	C126.903046,85.000000 251.868774,85.000000 377.000000,85.000000 
	C377.000000,56.582237 377.000000,28.791119 377.000000,1.000000 
z"/>
<path fill="#000000" opacity="1.000000" stroke="none" 
	d="
M1.000000,164.463882 
	C278.690765,164.000000 556.381531,164.000000 834.536133,164.000000 
	C835.000000,192.024078 835.000000,220.048157 835.000000,248.536118 
	C557.309265,249.000000 279.618500,249.000000 1.463884,249.000000 
	C1.000000,220.975922 1.000000,192.951843 1.000000,164.463882 
z"/>
<path fill="#000000" opacity="1.000000" stroke="none" 
	d="
M835.000000,737.533020 
	C557.311340,738.000000 279.622650,738.000000 1.466985,738.000000 
	C1.000000,710.311340 1.000000,682.622620 1.468657,654.466980 
	C279.624878,654.000000 557.312439,654.000000 835.000000,654.000000 
	C835.000000,681.688660 835.000000,709.377380 835.000000,737.533020 
z"/>
<path fill="#E60013" opacity="1.000000" stroke="none" 
	d="
M373.009644,491.165375 
	C375.324127,491.110260 377.638580,491.007721 379.953064,491.007233 
	C406.325562,491.001617 432.698059,491.011597 459.847412,491.363892 
	C462.611938,491.806946 464.599548,491.987762 466.587189,491.987976 
	C589.391479,492.001373 712.195740,492.000000 835.000000,492.000000 
	C835.000000,519.020874 835.000000,546.041809 834.531372,573.531372 
	C711.458130,574.000000 588.853577,573.995850 466.249023,574.034729 
	C464.162720,574.035400 462.076599,574.556458 459.527557,574.908691 
	C430.379669,574.933350 401.694641,574.883972 372.694916,574.562866 
	C370.392639,574.194031 368.405060,574.012329 366.417450,574.012146 
	C244.611633,573.998657 122.805817,574.000000 1.000000,574.000000 
	C1.000000,573.250000 1.000000,572.500000 1.325908,571.106812 
	C1.767877,564.010315 1.993653,557.556213 1.947744,551.104065 
	C1.928508,548.400574 1.333328,545.701233 0.999997,543.000000 
	C1.000000,537.977905 1.000000,532.955811 1.325908,527.198669 
	C1.767866,517.350769 1.927671,508.238068 1.953006,499.125000 
	C1.956826,497.750885 1.333322,496.375031 1.000000,495.000000 
	C1.000000,494.250000 1.000000,493.500000 1.468657,492.375000 
	C123.541901,492.000000 245.146484,492.004150 366.751068,491.965271 
	C368.837341,491.964600 370.923462,491.443573 373.009644,491.165375 
z"/>
<path fill="#FFFFFF" opacity="1.000000" stroke="none" 
	d="
M373.009583,574.834595 
	C401.694641,574.883972 430.379669,574.933350 459.991943,574.979797 
	C585.612732,574.984558 710.306396,574.992310 835.000000,575.000000 
	C835.000000,601.020874 835.000000,627.041809 835.000000,653.531372 
	C557.312439,654.000000 279.624878,654.000000 1.468657,654.000000 
	C1.000000,627.979126 1.000000,601.958191 1.468657,575.468628 
	C123.633987,575.000000 245.330673,575.000793 367.027344,574.993042 
	C369.021423,574.992920 371.015503,574.889709 373.009583,574.834595 
z"/>
<path fill="#000000" opacity="1.000000" stroke="none" 
	d="
M1.000000,327.468658 
	C126.094650,327.000000 251.189301,327.000000 376.641968,327.000000 
	C376.641968,355.253754 376.641968,383.432678 376.641968,412.000000 
	C251.708313,412.000000 126.822815,412.000000 1.468657,412.000000 
	C1.000000,383.979095 1.000000,355.958221 1.000000,327.468658 
z"/>
<path fill="#000000" opacity="1.000000" stroke="none" 
	d="
M1.000000,817.468628 
	C126.174911,817.000000 251.349823,817.000000 377.000000,817.000000 
	C377.000000,845.231079 377.000000,873.146912 377.000000,901.531372 
	C251.785675,902.000000 126.571342,902.000000 1.000000,902.000000 
	C1.000000,873.980103 1.000000,845.958740 1.000000,817.468628 
z"/>
<path fill="#000000" opacity="1.000000" stroke="none" 
	d="
M460.468658,902.000000 
	C460.000000,873.875793 460.000000,845.751587 460.000000,817.000000 
	C584.797424,817.000000 709.430054,817.000000 834.531372,817.000000 
	C835.000000,845.306396 835.000000,873.612732 835.000000,902.000000 
	C710.312439,902.000000 585.624878,902.000000 460.468658,902.000000 
z"/>
<path fill="#000000" opacity="1.000000" stroke="none" 
	d="
M835.000000,411.531342 
	C710.238647,412.000000 585.477295,412.000000 460.358002,412.000000 
	C460.358002,383.746216 460.358002,355.567322 460.358002,327.000000 
	C584.958374,327.000000 709.510498,327.000000 834.531372,327.000000 
	C835.000000,355.020905 835.000000,383.041779 835.000000,411.531342 
z"/>
<path fill="#000000" opacity="1.000000" stroke="none" 
	d="
M376.531342,1.000000 
	C377.000000,28.791119 377.000000,56.582237 377.000000,85.000000 
	C251.868774,85.000000 126.903046,85.000000 1.468657,85.000000 
	C1.000000,57.026649 1.000000,29.053295 1.000000,1.000000 
	C126.020882,1.000000 251.041779,1.000000 376.531342,1.000000 
z"/>
<path fill="#000000" opacity="1.000000" stroke="none" 
	d="
M835.000000,84.531342 
	C710.158569,85.000000 585.317078,85.000000 460.000000,85.000000 
	C460.000000,57.102509 460.000000,29.519913 460.000000,1.468657 
	C584.880798,1.000000 709.761536,1.000000 835.000000,1.000000 
	C835.000000,28.686535 835.000000,56.374607 835.000000,84.531342 
z"/>
<path fill="#CB4729" opacity="1.000000" stroke="none" 
	d="
M835.000000,574.750000 
	C710.306396,574.992310 585.612732,574.984558 460.454773,574.905762 
	C462.076599,574.556458 464.162720,574.035400 466.249023,574.034729 
	C588.853577,573.995850 711.458130,574.000000 834.531372,574.000000 
	C835.000000,574.000000 835.000000,574.500000 835.000000,574.750000 
z"/>
<path fill="#CB4729" opacity="1.000000" stroke="none" 
	d="
M835.000000,491.750000 
	C712.195740,492.000000 589.391479,492.001373 466.587189,491.987976 
	C464.599548,491.987762 462.611938,491.806946 460.310608,491.438293 
	C461.990967,491.110809 463.984985,491.007080 465.979004,491.006958 
	C588.673584,490.999237 711.368103,491.000000 834.531372,491.000000 
	C835.000000,491.000000 835.000000,491.500000 835.000000,491.750000 
z"/>
<path fill="#CB4729" opacity="1.000000" stroke="none" 
	d="
M372.694916,574.562866 
	C371.015503,574.889709 369.021423,574.992920 367.027344,574.993042 
	C245.330673,575.000793 123.633987,575.000000 1.468657,575.000000 
	C1.000000,575.000000 1.000000,574.500000 1.000000,574.250000 
	C122.805817,574.000000 244.611633,573.998657 366.417450,574.012146 
	C368.405060,574.012329 370.392639,574.194031 372.694916,574.562866 
z"/>
<path fill="#CB4729" opacity="1.000000" stroke="none" 
	d="
M372.545288,491.094238 
	C370.923462,491.443573 368.837341,491.964600 366.751068,491.965271 
	C245.146484,492.004150 123.541901,492.000000 1.468657,492.000000 
	C1.000000,492.000000 1.000000,491.500000 1.000000,491.250000 
	C124.693634,491.007721 248.387268,491.015411 372.545288,491.094238 
z"/>
<path fill="#B55839" opacity="1.000000" stroke="none" 
	d="
M1.000000,495.468658 
	C1.333322,496.375031 1.956826,497.750885 1.953006,499.125000 
	C1.927671,508.238068 1.767866,517.350769 1.325908,526.731812 
	C1.000000,516.645752 1.000000,506.291534 1.000000,495.468658 
z"/>
<path fill="#B55839" opacity="1.000000" stroke="none" 
	d="
M0.999997,543.468628 
	C1.333328,545.701233 1.928508,548.400574 1.947744,551.104065 
	C1.993653,557.556213 1.767877,564.010315 1.325908,570.731812 
	C1.000000,561.979126 1.000000,552.958191 0.999997,543.468628 
z"/>
</svg>