<?xml version="1.0" encoding="UTF-8"?>
<svg version="1.1" xmlns="http://www.w3.org/2000/svg" width="834" height="901">
<path d="M0 0 C275.22 0 550.44 0 834 0 C834 28.05 834 56.1 834 85 C558.78 85 283.56 85 0 85 C0 56.95 0 28.9 0 0 Z " fill="#000000" transform="translate(0,163)"/>
<path d="M0 0 C275.22 0 550.44 0 834 0 C834 27.72 834 55.44 834 84 C558.78 84 283.56 84 0 84 C0 56.28 0 28.56 0 0 Z " fill="#000000" transform="translate(0,653)"/>
<path d="M0 0 C275.22 0 550.44 0 834 0 C834 27.72 834 55.44 834 84 C558.78 84 283.56 84 0 84 C0 56.28 0 28.56 0 0 Z " fill="#000000" transform="translate(0,490)"/>
<path d="M0 0 C124.08 0 248.16 0 376 0 C376 28.05 376 56.1 376 85 C251.92 85 127.84 85 0 85 C0 56.95 0 28.9 0 0 Z " fill="#000000" transform="translate(0,816)"/>
<path d="M0 0 C124.08 0 248.16 0 376 0 C376 28.05 376 56.1 376 85 C251.92 85 127.84 85 0 85 C0 56.95 0 28.9 0 0 Z " fill="#000000" transform="translate(0,326)"/>
<path d="M0 0 C123.75 0 247.5 0 375 0 C375 28.05 375 56.1 375 85 C251.25 85 127.5 85 0 85 C0 56.95 0 28.9 0 0 Z " fill="#000000" transform="translate(459,816)"/>
<path d="M0 0 C123.75 0 247.5 0 375 0 C375 28.05 375 56.1 375 85 C251.25 85 127.5 85 0 85 C0 56.95 0 28.9 0 0 Z " fill="#000000" transform="translate(459,326)"/>
<path d="M0 0 C124.08 0 248.16 0 376 0 C376 27.72 376 55.44 376 84 C251.92 84 127.84 84 0 84 C0 56.28 0 28.56 0 0 Z " fill="#E60013" transform="translate(0,0)"/>
<path d="M0 0 C123.75 0 247.5 0 375 0 C375 27.72 375 55.44 375 84 C251.25 84 127.5 84 0 84 C0 56.28 0 28.56 0 0 Z " fill="#E60013" transform="translate(459,0)"/>
</svg>
