<svg version="1.1" id="Layer_1" xmlns="http://www.w3.org/2000/svg" xmlns:xlink="http://www.w3.org/1999/xlink" x="0px" y="0px"
	 width="100%" viewBox="0 0 834 901" enable-background="new 0 0 834 901" xml:space="preserve">
<path fill="#FFFFFF" opacity="1.000000" stroke="none" 
	d="
M835.000000,412.000000 
	C835.000000,438.020905 835.000000,464.041779 834.531372,490.531342 
	C709.510559,491.000000 584.958496,491.000000 460.358093,491.000000 
	C460.358093,519.233948 460.358093,547.079651 460.358093,575.000000 
	C585.477417,575.000000 710.238708,575.000000 835.000000,575.000000 
	C835.000000,601.020874 835.000000,627.041809 834.533020,653.531372 
	C556.377380,654.000000 278.688690,654.000000 1.000000,654.000000 
	C1.000000,627.979126 1.000000,601.958191 1.468657,575.468628 
	C126.822754,575.000000 251.708191,575.000000 376.641907,575.000000 
	C376.641907,546.766052 376.641907,518.920349 376.641907,491.000000 
	C251.189194,491.000000 126.094597,491.000000 1.000000,491.000000 
	C1.000000,464.979095 1.000000,438.958221 1.466985,412.468658 
	C279.622650,412.000000 557.311340,412.000000 835.000000,412.000000 
z"/>
<path fill="#FFFFFF" opacity="1.000000" stroke="none" 
	d="
M1.000000,164.000000 
	C1.000000,137.979111 1.000000,111.958214 1.468657,85.468658 
	C126.903046,85.000000 251.868774,85.000000 377.000000,85.000000 
	C377.000000,56.582237 377.000000,28.791119 377.000000,1.000000 
	C404.354218,1.000000 431.708466,1.000000 459.531342,1.468657 
	C460.000000,29.519913 460.000000,57.102509 460.000000,85.000000 
	C585.317078,85.000000 710.158569,85.000000 835.000000,85.000000 
	C835.000000,111.020897 835.000000,137.041794 834.533020,163.531342 
	C556.377380,164.000000 278.688690,164.000000 1.000000,164.000000 
z"/>
<path fill="#000000" opacity="1.000000" stroke="none" 
	d="
M1.000000,164.466980 
	C278.688690,164.000000 556.377380,164.000000 834.533020,164.000000 
	C835.000000,192.022018 835.000000,220.044022 834.536133,248.533020 
	C556.381531,249.000000 278.690765,249.000000 1.000000,249.000000 
	C1.000000,220.977982 1.000000,192.955978 1.000000,164.466980 
z"/>
<path fill="#000000" opacity="1.000000" stroke="none" 
	d="
M835.000000,411.533020 
	C557.311340,412.000000 279.622650,412.000000 1.466985,412.000000 
	C1.000000,383.977997 1.000000,355.955963 1.463884,327.466980 
	C279.618500,327.000000 557.309265,327.000000 835.000000,327.000000 
	C835.000000,355.022003 835.000000,383.044037 835.000000,411.533020 
z"/>
<path fill="#000000" opacity="1.000000" stroke="none" 
	d="
M1.000000,654.466980 
	C278.688690,654.000000 556.377380,654.000000 834.533020,654.000000 
	C835.000000,681.688660 835.000000,709.377380 834.531372,737.533020 
	C556.375122,738.000000 278.687561,738.000000 1.000000,738.000000 
	C1.000000,710.311340 1.000000,682.622620 1.000000,654.466980 
z"/>
<path fill="#E60013" opacity="1.000000" stroke="none" 
	d="
M835.000000,818.000000 
	C835.000000,845.354248 835.000000,872.708435 834.531372,900.531372 
	C711.422485,901.000000 588.782349,900.995117 466.142181,901.041565 
	C464.094635,901.042358 462.047394,901.666687 460.000000,902.000000 
	C432.312439,902.000000 404.624878,902.000000 376.200439,901.674133 
	C373.480286,901.232178 371.497070,901.015015 369.513794,901.014526 
	C247.046387,900.984131 124.578979,900.971497 2.070122,900.493774 
	C2.029227,872.740601 2.029782,845.450928 2.346414,818.088501 
	C3.091252,817.967834 3.520012,817.919983 4.416756,817.918579 
	C127.181419,817.976685 249.478104,817.991211 371.774780,817.965393 
	C373.187592,817.965088 374.600250,817.442627 376.475708,817.090576 
	C404.621246,817.066101 432.304108,817.115051 460.288513,817.453308 
	C462.580475,817.828430 464.570892,817.989075 466.561279,817.989258 
	C589.374207,818.001160 712.187073,818.000000 835.000000,818.000000 
z"/>
<path fill="#FFFFFF" opacity="1.000000" stroke="none" 
	d="
M3.948769,817.872070 
	C3.520012,817.919983 3.091252,817.967834 2.093477,818.019043 
	C1.349642,818.014893 1.174821,818.007446 1.000000,818.000000 
	C1.000000,791.645752 1.000000,765.291565 1.000000,738.468628 
	C278.687561,738.000000 556.375122,738.000000 834.531372,738.000000 
	C835.000000,764.020874 835.000000,790.041809 834.531372,816.531372 
	C711.531555,817.000000 589.000366,816.999146 466.469238,817.006836 
	C464.308472,817.006958 462.147705,817.109375 459.986938,817.164001 
	C432.304108,817.115051 404.621246,817.066101 376.011383,817.021362 
	C252.748001,817.017090 130.411652,817.005737 8.075315,817.036194 
	C6.699729,817.036560 5.324280,817.581360 3.948769,817.872070 
z"/>
<path fill="#FFFFFF" opacity="1.000000" stroke="none" 
	d="
M835.000000,326.536133 
	C557.309265,327.000000 279.618500,327.000000 1.463884,327.000000 
	C1.000000,301.309265 1.000000,275.618500 1.000000,249.463882 
	C278.690765,249.000000 556.381531,249.000000 834.536133,249.000000 
	C835.000000,274.690735 835.000000,300.381500 835.000000,326.536133 
z"/>
<path fill="#000000" opacity="1.000000" stroke="none" 
	d="
M376.531342,1.000000 
	C377.000000,28.791119 377.000000,56.582237 377.000000,85.000000 
	C251.868774,85.000000 126.903046,85.000000 1.468657,85.000000 
	C1.000000,57.026649 1.000000,29.053295 1.000000,1.000000 
	C126.020882,1.000000 251.041779,1.000000 376.531342,1.000000 
z"/>
<path fill="#000000" opacity="1.000000" stroke="none" 
	d="
M1.000000,491.468658 
	C126.094597,491.000000 251.189194,491.000000 376.641907,491.000000 
	C376.641907,518.920349 376.641907,546.766052 376.641907,575.000000 
	C251.708191,575.000000 126.822754,575.000000 1.468657,575.000000 
	C1.000000,547.312439 1.000000,519.624878 1.000000,491.468658 
z"/>
<path fill="#000000" opacity="1.000000" stroke="none" 
	d="
M835.000000,574.531372 
	C710.238708,575.000000 585.477417,575.000000 460.358093,575.000000 
	C460.358093,547.079651 460.358093,519.233948 460.358093,491.000000 
	C584.958496,491.000000 709.510559,491.000000 834.531372,491.000000 
	C835.000000,518.687561 835.000000,546.375122 835.000000,574.531372 
z"/>
<path fill="#000000" opacity="1.000000" stroke="none" 
	d="
M835.000000,84.531342 
	C710.158569,85.000000 585.317078,85.000000 460.000000,85.000000 
	C460.000000,57.102509 460.000000,29.519913 460.000000,1.468657 
	C584.880798,1.000000 709.761536,1.000000 835.000000,1.000000 
	C835.000000,28.686535 835.000000,56.374607 835.000000,84.531342 
z"/>
<path fill="#A55E43" opacity="1.000000" stroke="none" 
	d="
M460.288513,817.453308 
	C462.147705,817.109375 464.308472,817.006958 466.469238,817.006836 
	C589.000366,816.999146 711.531555,817.000000 834.531372,817.000000 
	C835.000000,817.000000 835.000000,817.500000 835.000000,817.750000 
	C712.187073,818.000000 589.374207,818.001160 466.561279,817.989258 
	C464.570892,817.989075 462.580475,817.828430 460.288513,817.453308 
z"/>
<path fill="#B55839" opacity="1.000000" stroke="none" 
	d="
M2.111571,900.957214 
	C124.578979,900.971497 247.046387,900.984131 369.513794,901.014526 
	C371.497070,901.015015 373.480286,901.232178 375.731750,901.674133 
	C251.000000,902.000000 126.000000,902.000000 1.278035,901.493042 
	C1.741237,900.976440 1.926404,900.966797 2.111571,900.957214 
z"/>
<path fill="#B55839" opacity="1.000000" stroke="none" 
	d="
M460.468658,902.000000 
	C462.047394,901.666687 464.094635,901.042358 466.142181,901.041565 
	C588.782349,900.995117 711.422485,901.000000 834.531372,901.000000 
	C833.668640,901.333374 832.337463,901.957336 831.005737,901.958313 
	C766.247986,902.005981 701.490173,902.000000 636.732361,902.000000 
	C578.134033,902.000000 519.535645,902.000000 460.468658,902.000000 
z"/>
<path fill="#B55839" opacity="1.000000" stroke="none" 
	d="
M2.070122,900.493774 
	C1.926404,900.966797 1.741237,900.976440 1.278035,900.993042 
	C1.000000,873.645752 1.000000,846.291565 1.000000,818.468628 
	C1.174821,818.007446 1.349642,818.014893 1.777399,818.091797 
	C2.029782,845.450928 2.029227,872.740601 2.070122,900.493774 
z"/>
<path fill="#A55E43" opacity="1.000000" stroke="none" 
	d="
M4.416753,817.918579 
	C5.324280,817.581360 6.699729,817.036560 8.075315,817.036194 
	C130.411652,817.005737 252.748001,817.017090 375.548676,817.094849 
	C374.600250,817.442627 373.187592,817.965088 371.774780,817.965393 
	C249.478104,817.991211 127.181419,817.976685 4.416753,817.918579 
z"/>
</svg>