<svg version="1.1" id="Layer_1" xmlns="http://www.w3.org/2000/svg" xmlns:xlink="http://www.w3.org/1999/xlink" x="0px" y="0px"
	 width="100%" viewBox="0 0 834 901" enable-background="new 0 0 834 901" xml:space="preserve">
<path fill="#FFFFFF" opacity="1.000000" stroke="none" 
	d="
M1.000000,654.000000 
	C1.000000,627.979126 1.000000,601.958191 1.468657,575.468628 
	C126.822754,575.000000 251.708191,575.000000 376.641907,575.000000 
	C376.641907,546.766052 376.641907,518.920349 376.641907,491.000000 
	C251.189194,491.000000 126.094597,491.000000 1.000000,491.000000 
	C1.000000,464.979095 1.000000,438.958221 1.466985,412.468658 
	C279.622650,412.000000 557.311340,412.000000 835.000000,412.000000 
	C835.000000,438.020905 835.000000,464.041779 834.531372,490.531342 
	C709.510559,491.000000 584.958496,491.000000 460.358093,491.000000 
	C460.358093,519.233948 460.358093,547.079651 460.358093,575.000000 
	C585.477417,575.000000 710.238708,575.000000 835.000000,575.000000 
	C835.000000,601.020874 835.000000,627.041809 834.531372,653.531372 
	C711.366089,654.000000 588.669495,653.999146 465.972900,654.006775 
	C463.978699,654.006897 461.984497,654.109924 459.527435,654.091064 
	C431.381134,654.066162 403.697662,654.115112 375.549622,654.094482 
	C250.389999,654.016602 125.695000,654.008301 1.000000,654.000000 
z"/>
<path fill="#FFFFFF" opacity="1.000000" stroke="none" 
	d="
M835.000000,85.000000 
	C835.000000,111.020897 835.000000,137.041794 834.533020,163.531342 
	C556.377380,164.000000 278.688690,164.000000 1.000000,164.000000 
	C1.000000,137.979111 1.000000,111.958214 1.468657,85.468658 
	C126.903046,85.000000 251.868774,85.000000 377.000000,85.000000 
	C377.000000,56.582237 377.000000,28.791119 377.000000,1.000000 
	C404.354218,1.000000 431.708466,1.000000 459.531342,1.468657 
	C460.000000,29.519913 460.000000,57.102509 460.000000,85.000000 
	C585.317078,85.000000 710.158569,85.000000 835.000000,85.000000 
z"/>
<path fill="#000000" opacity="1.000000" stroke="none" 
	d="
M1.000000,164.466980 
	C278.688690,164.000000 556.377380,164.000000 834.533020,164.000000 
	C835.000000,192.022018 835.000000,220.044022 834.536133,248.533020 
	C556.381531,249.000000 278.690765,249.000000 1.000000,249.000000 
	C1.000000,220.977982 1.000000,192.955978 1.000000,164.466980 
z"/>
<path fill="#000000" opacity="1.000000" stroke="none" 
	d="
M835.000000,411.533020 
	C557.311340,412.000000 279.622650,412.000000 1.466985,412.000000 
	C1.000000,383.977997 1.000000,355.955963 1.463884,327.466980 
	C279.618500,327.000000 557.309265,327.000000 835.000000,327.000000 
	C835.000000,355.022003 835.000000,383.044037 835.000000,411.533020 
z"/>
<path fill="#000000" opacity="1.000000" stroke="none" 
	d="
M835.000000,817.000000 
	C835.000000,845.321106 835.000000,873.642151 835.000000,901.956055 
	C557.000000,901.948853 279.000000,901.948853 1.000000,901.948853 
	C1.000000,873.909729 1.000000,845.921875 1.463884,817.466980 
	C279.618500,817.000000 557.309265,817.000000 835.000000,817.000000 
z"/>
<path fill="#E60013" opacity="1.000000" stroke="none" 
	d="
M376.014221,654.164062 
	C403.697662,654.115112 431.381134,654.066162 459.833893,654.373535 
	C462.592560,654.819946 464.581940,654.988586 466.571289,654.988770 
	C589.380859,655.001282 712.190430,655.000000 835.000000,655.000000 
	C835.000000,682.354248 835.000000,709.708435 834.536133,737.531372 
	C556.381531,738.000000 278.690765,738.000000 1.000000,738.000000 
	C1.000000,735.958313 1.000000,733.916687 1.325907,731.169312 
	C1.765734,729.814453 1.978609,729.165405 1.979223,728.516113 
	C1.998728,707.889343 2.014534,687.262573 1.956940,666.635986 
	C1.953554,665.423096 1.333228,664.211975 0.999999,663.000000 
	C1.000000,660.629456 1.000000,658.258850 1.468657,655.444153 
	C124.547653,655.000000 247.158005,655.004150 369.768341,654.965149 
	C371.850372,654.964539 373.932251,654.442688 376.014221,654.164062 
z"/>
<path fill="#FFFFFF" opacity="1.000000" stroke="none" 
	d="
M1.000000,738.463867 
	C278.690765,738.000000 556.381531,738.000000 834.536133,738.000000 
	C835.000000,764.024109 835.000000,790.048157 835.000000,816.536133 
	C557.309265,817.000000 279.618500,817.000000 1.463884,817.000000 
	C1.000000,790.975891 1.000000,764.951843 1.000000,738.463867 
z"/>
<path fill="#FFFFFF" opacity="1.000000" stroke="none" 
	d="
M835.000000,326.536133 
	C557.309265,327.000000 279.618500,327.000000 1.463884,327.000000 
	C1.000000,301.309265 1.000000,275.618500 1.000000,249.463882 
	C278.690765,249.000000 556.381531,249.000000 834.536133,249.000000 
	C835.000000,274.690735 835.000000,300.381500 835.000000,326.536133 
z"/>
<path fill="#000000" opacity="1.000000" stroke="none" 
	d="
M376.531342,1.000000 
	C377.000000,28.791119 377.000000,56.582237 377.000000,85.000000 
	C251.868774,85.000000 126.903046,85.000000 1.468657,85.000000 
	C1.000000,57.026649 1.000000,29.053295 1.000000,1.000000 
	C126.020882,1.000000 251.041779,1.000000 376.531342,1.000000 
z"/>
<path fill="#000000" opacity="1.000000" stroke="none" 
	d="
M1.000000,491.468658 
	C126.094597,491.000000 251.189194,491.000000 376.641907,491.000000 
	C376.641907,518.920349 376.641907,546.766052 376.641907,575.000000 
	C251.708191,575.000000 126.822754,575.000000 1.468657,575.000000 
	C1.000000,547.312439 1.000000,519.624878 1.000000,491.468658 
z"/>
<path fill="#000000" opacity="1.000000" stroke="none" 
	d="
M835.000000,84.531342 
	C710.158569,85.000000 585.317078,85.000000 460.000000,85.000000 
	C460.000000,57.102509 460.000000,29.519913 460.000000,1.468657 
	C584.880798,1.000000 709.761536,1.000000 835.000000,1.000000 
	C835.000000,28.686535 835.000000,56.374607 835.000000,84.531342 
z"/>
<path fill="#000000" opacity="1.000000" stroke="none" 
	d="
M835.000000,574.531372 
	C710.238708,575.000000 585.477417,575.000000 460.358093,575.000000 
	C460.358093,547.079651 460.358093,519.233948 460.358093,491.000000 
	C584.958496,491.000000 709.510559,491.000000 834.531372,491.000000 
	C835.000000,518.687561 835.000000,546.375122 835.000000,574.531372 
z"/>
<path fill="#B55839" opacity="1.000000" stroke="none" 
	d="
M375.549622,654.094482 
	C373.932251,654.442688 371.850372,654.964539 369.768341,654.965149 
	C247.158005,655.004150 124.547653,655.000000 1.468657,655.000000 
	C1.000000,655.000000 1.000000,654.500000 1.000000,654.250000 
	C125.695000,654.008301 250.389999,654.016602 375.549622,654.094482 
z"/>
<path fill="#B55839" opacity="1.000000" stroke="none" 
	d="
M835.000000,654.750000 
	C712.190430,655.000000 589.380859,655.001282 466.571289,654.988770 
	C464.581940,654.988586 462.592560,654.819946 460.296753,654.447388 
	C461.984497,654.109924 463.978699,654.006897 465.972900,654.006775 
	C588.669495,653.999146 711.366089,654.000000 834.531372,654.000000 
	C835.000000,654.000000 835.000000,654.500000 835.000000,654.750000 
z"/>
<path fill="#B55839" opacity="1.000000" stroke="none" 
	d="
M0.999999,663.468628 
	C1.333228,664.211975 1.953554,665.423096 1.956940,666.635986 
	C2.014534,687.262573 1.998728,707.889343 1.979223,728.516113 
	C1.978609,729.165405 1.765734,729.814453 1.325907,730.731812 
	C1.000000,708.645752 1.000000,686.291565 0.999999,663.468628 
z"/>
</svg>