<svg version="1.1" id="Layer_1" xmlns="http://www.w3.org/2000/svg" xmlns:xlink="http://www.w3.org/1999/xlink" x="0px" y="0px"
	 width="100%" viewBox="0 0 834 901" enable-background="new 0 0 834 901" xml:space="preserve">
<path fill="#FFFFFF" opacity="1.000000" stroke="none" 
	d="
M1.000000,654.000000 
	C1.000000,627.979126 1.000000,601.958191 1.468657,575.468628 
	C126.822754,575.000000 251.708191,575.000000 376.641907,575.000000 
	C376.641907,546.766052 376.641907,518.920349 376.641907,491.000000 
	C251.189194,491.000000 126.094597,491.000000 1.000000,491.000000 
	C1.000000,464.979095 1.000000,438.958221 1.468657,412.468658 
	C124.467415,412.000000 246.997513,412.000824 369.527618,411.993164 
	C371.688293,411.993011 373.848999,411.890076 376.472534,411.908936 
	C404.618835,411.933777 432.302277,411.884827 460.450317,411.905457 
	C585.609985,411.983368 710.304993,411.991669 835.000000,412.000000 
	C835.000000,438.020905 835.000000,464.041779 834.531372,490.531342 
	C709.510559,491.000000 584.958496,491.000000 460.358093,491.000000 
	C460.358093,519.233948 460.358093,547.079651 460.358093,575.000000 
	C585.477417,575.000000 710.238708,575.000000 835.000000,575.000000 
	C835.000000,601.020874 835.000000,627.041809 834.533020,653.531372 
	C556.377380,654.000000 278.688690,654.000000 1.000000,654.000000 
z"/>
<path fill="#FFFFFF" opacity="1.000000" stroke="none" 
	d="
M835.000000,85.000000 
	C835.000000,111.020897 835.000000,137.041794 834.533020,163.531342 
	C556.377380,164.000000 278.688690,164.000000 1.000000,164.000000 
	C1.000000,137.979111 1.000000,111.958214 1.468657,85.468658 
	C126.903046,85.000000 251.868774,85.000000 377.000000,85.000000 
	C377.000000,56.582237 377.000000,28.791119 377.000000,1.000000 
	C404.354218,1.000000 431.708466,1.000000 459.531342,1.468657 
	C460.000000,29.519913 460.000000,57.102509 460.000000,85.000000 
	C585.317078,85.000000 710.158569,85.000000 835.000000,85.000000 
z"/>
<path fill="#000000" opacity="1.000000" stroke="none" 
	d="
M835.000000,817.000000 
	C835.000000,845.321106 835.000000,873.642151 835.000000,901.956055 
	C557.000000,901.948853 279.000000,901.948853 1.000000,901.948853 
	C1.000000,873.909729 1.000000,845.921875 1.463884,817.466980 
	C279.618500,817.000000 557.309265,817.000000 835.000000,817.000000 
z"/>
<path fill="#000000" opacity="1.000000" stroke="none" 
	d="
M1.000000,164.466980 
	C278.688690,164.000000 556.377380,164.000000 834.533020,164.000000 
	C835.000000,192.022018 835.000000,220.044022 834.531372,248.533020 
	C556.375122,249.000000 278.687561,249.000000 1.000000,249.000000 
	C1.000000,220.977982 1.000000,192.955978 1.000000,164.466980 
z"/>
<path fill="#000000" opacity="1.000000" stroke="none" 
	d="
M1.000000,654.466980 
	C278.688690,654.000000 556.377380,654.000000 834.533020,654.000000 
	C835.000000,681.688660 835.000000,709.377380 834.536133,737.533020 
	C556.381531,738.000000 278.690765,738.000000 1.000000,738.000000 
	C1.000000,710.311340 1.000000,682.622620 1.000000,654.466980 
z"/>
<path fill="#E60013" opacity="1.000000" stroke="none" 
	d="
M459.985718,411.835907 
	C432.302277,411.884827 404.618835,411.933777 376.166077,411.626434 
	C373.407379,411.180084 371.417999,411.011475 369.428650,411.011261 
	C246.619095,410.998749 123.809547,411.000000 1.000000,411.000000 
	C1.000000,409.933319 1.000000,408.866669 1.325895,407.131775 
	C1.767860,404.649963 1.982660,402.836456 1.985079,401.022675 
	C2.017470,376.735565 2.020195,352.448425 2.346377,328.088562 
	C3.091229,327.967926 3.519995,327.920013 4.416745,327.918549 
	C127.181435,327.976685 249.478134,327.991150 371.774841,327.965332 
	C373.187653,327.965027 374.600311,327.442688 376.475769,327.090576 
	C404.621277,327.066101 432.304077,327.115051 460.288483,327.453308 
	C462.580475,327.828430 464.570862,327.989136 466.561249,327.989319 
	C589.374146,328.001251 712.187073,328.000000 835.000000,328.000000 
	C835.000000,355.354218 835.000000,382.708466 834.531372,410.531342 
	C711.452332,411.000000 588.841980,410.995880 466.231598,411.034790 
	C464.149536,411.035461 462.067688,411.557281 459.985718,411.835907 
z"/>
<path fill="#FFFFFF" opacity="1.000000" stroke="none" 
	d="
M1.000000,738.463867 
	C278.690765,738.000000 556.381531,738.000000 834.536133,738.000000 
	C835.000000,764.024109 835.000000,790.048157 835.000000,816.536133 
	C557.309265,817.000000 279.618500,817.000000 1.463884,817.000000 
	C1.000000,790.975891 1.000000,764.951843 1.000000,738.463867 
z"/>
<path fill="#FFFFFF" opacity="1.000000" stroke="none" 
	d="
M459.986877,327.164001 
	C432.304077,327.115051 404.621277,327.066101 376.011414,327.021423 
	C252.748016,327.017090 130.411652,327.005676 8.075293,327.036133 
	C6.699713,327.036469 5.324268,327.581390 3.948761,327.872070 
	C3.519995,327.920013 3.091229,327.967926 2.093454,328.019135 
	C1.349630,328.014923 1.174815,328.007477 1.000000,328.000000 
	C1.000000,301.979095 1.000000,275.958221 1.000000,249.468658 
	C278.687561,249.000000 556.375122,249.000000 834.531372,249.000000 
	C835.000000,274.687561 835.000000,300.375122 834.531372,326.531342 
	C711.531494,327.000000 589.000366,326.999176 466.469177,327.006805 
	C464.308411,327.006927 462.147644,327.109344 459.986877,327.164001 
z"/>
<path fill="#000000" opacity="1.000000" stroke="none" 
	d="
M376.531342,1.000000 
	C377.000000,28.791119 377.000000,56.582237 377.000000,85.000000 
	C251.868774,85.000000 126.903046,85.000000 1.468657,85.000000 
	C1.000000,57.026649 1.000000,29.053295 1.000000,1.000000 
	C126.020882,1.000000 251.041779,1.000000 376.531342,1.000000 
z"/>
<path fill="#000000" opacity="1.000000" stroke="none" 
	d="
M1.000000,491.468658 
	C126.094597,491.000000 251.189194,491.000000 376.641907,491.000000 
	C376.641907,518.920349 376.641907,546.766052 376.641907,575.000000 
	C251.708191,575.000000 126.822754,575.000000 1.468657,575.000000 
	C1.000000,547.312439 1.000000,519.624878 1.000000,491.468658 
z"/>
<path fill="#000000" opacity="1.000000" stroke="none" 
	d="
M835.000000,574.531372 
	C710.238708,575.000000 585.477417,575.000000 460.358093,575.000000 
	C460.358093,547.079651 460.358093,519.233948 460.358093,491.000000 
	C584.958496,491.000000 709.510559,491.000000 834.531372,491.000000 
	C835.000000,518.687561 835.000000,546.375122 835.000000,574.531372 
z"/>
<path fill="#000000" opacity="1.000000" stroke="none" 
	d="
M835.000000,84.531342 
	C710.158569,85.000000 585.317078,85.000000 460.000000,85.000000 
	C460.000000,57.102509 460.000000,29.519913 460.000000,1.468657 
	C584.880798,1.000000 709.761536,1.000000 835.000000,1.000000 
	C835.000000,28.686535 835.000000,56.374607 835.000000,84.531342 
z"/>
<path fill="#B55839" opacity="1.000000" stroke="none" 
	d="
M460.450317,411.905457 
	C462.067688,411.557281 464.149536,411.035461 466.231598,411.034790 
	C588.841980,410.995880 711.452332,411.000000 834.531372,411.000000 
	C835.000000,411.000000 835.000000,411.500000 835.000000,411.750000 
	C710.304993,411.991669 585.609985,411.983368 460.450317,411.905457 
z"/>
<path fill="#B55839" opacity="1.000000" stroke="none" 
	d="
M1.000000,411.250000 
	C123.809547,411.000000 246.619095,410.998749 369.428650,411.011261 
	C371.417999,411.011475 373.407379,411.180084 375.703186,411.552612 
	C373.848999,411.890076 371.688293,411.993011 369.527618,411.993164 
	C246.997513,412.000824 124.467415,412.000000 1.468657,412.000000 
	C1.000000,412.000000 1.000000,411.500000 1.000000,411.250000 
z"/>
<path fill="#A55E43" opacity="1.000000" stroke="none" 
	d="
M460.288483,327.453308 
	C462.147644,327.109344 464.308411,327.006927 466.469177,327.006805 
	C589.000366,326.999176 711.531494,327.000000 834.531372,327.000000 
	C835.000000,327.000000 835.000000,327.500000 835.000000,327.750000 
	C712.187073,328.000000 589.374146,328.001251 466.561249,327.989319 
	C464.570862,327.989136 462.580475,327.828430 460.288483,327.453308 
z"/>
<path fill="#B55839" opacity="1.000000" stroke="none" 
	d="
M1.000000,328.468658 
	C1.174815,328.007477 1.349630,328.014923 1.777368,328.091858 
	C2.020195,352.448425 2.017470,376.735565 1.985079,401.022675 
	C1.982660,402.836456 1.767860,404.649963 1.325895,406.731812 
	C1.000000,380.979095 1.000000,354.958221 1.000000,328.468658 
z"/>
<path fill="#A55E43" opacity="1.000000" stroke="none" 
	d="
M4.416745,327.918518 
	C5.324268,327.581390 6.699713,327.036469 8.075293,327.036133 
	C130.411652,327.005676 252.748016,327.017090 375.548706,327.094849 
	C374.600311,327.442688 373.187653,327.965027 371.774841,327.965332 
	C249.478134,327.991150 127.181435,327.976685 4.416745,327.918518 
z"/>
</svg>