<?xml version="1.0" encoding="UTF-8"?><svg id="Layer_2" xmlns="http://www.w3.org/2000/svg" viewBox="0 0 489.56 9.4"><g id="Fringe"><polyline points="0 .75 10.63 .75 10.63 8.65 21.25 8.65 21.25 .75 31.88 .75 31.88 8.65 42.51 8.65 42.51 .75 53.13 .75 53.13 8.65 63.76 8.65 63.76 .75 74.38 .75 74.38 8.65 85.01 8.65 85.01 .75 95.64 .75 95.64 8.65 106.26 8.65 106.26 .75 116.89 .75 116.89 8.65 127.52 8.65 127.52 .75 138.14 .75 138.14 8.65 148.77 8.65 148.77 .75 159.4 .75 159.4 8.65 170.02 8.65 170.02 .75 180.65 .75 180.65 8.65 191.27 8.65 191.27 .75 201.9 .75 201.9 8.65 212.53 8.65 212.53 .75 223.15 .75 223.15 8.65 233.78 8.65 233.78 .75 244.41 .75 244.41 8.65 255.03 8.65 255.03 .75 265.66 .75 265.66 8.65 276.29 8.65 276.29 .75 286.91 .75 286.91 8.65 297.54 8.65 297.54 .75 308.17 .75 308.17 8.65 318.79 8.65 318.79 .75 329.42 .75 329.42 8.65 340.04 8.65 340.04 .75 350.67 .75 350.67 8.65 361.3 8.65 361.3 .75 371.92 .75 371.92 8.65 382.55 8.65 382.55 .75 393.18 .75 393.18 8.65 403.8 8.65 403.8 .75 414.43 .75 414.43 8.65 425.06 8.65 425.06 .75 435.68 .75 435.68 8.65 446.31 8.65 446.31 .75 456.94 .75 456.94 8.65 467.56 8.65 467.56 .75 478.19 .75 478.19 8.65 488.81 8.65 488.81 .75" fill="none" stroke="#c4a490" stroke-miterlimit="10" stroke-width="1.5"/></g></svg>