<?xml version="1.0" encoding="UTF-8"?><svg id="Layer_2" xmlns="http://www.w3.org/2000/svg" viewBox="0 0 559.12 108.03"><g id="Layer_1-2"><path d="M91.95,68.9c.31,1.15.31,2.43,0,3.83-.31,1.41-.93,2.69-1.86,3.83-1.49,1.78-2.83,3.57-4.04,5.4-1.21,1.83-2.09,3.42-2.65,4.77-.74,1.77-1.73,3.65-2.97,5.63-1.24,1.98-2.63,3.91-4.18,5.79-1.55,1.88-3.2,3.55-4.97,5.01-1.76,1.46-3.51,2.5-5.25,3.13-1.73.63-3.47.73-5.2.31-1.73-.42-3.34-1.2-4.83-2.35-1.49-1.15-2.74-2.58-3.76-4.3-1.02-1.72-1.66-3.62-1.9-5.71-.19-1.46-.16-2.32.09-2.58.25-.26.87-.02,1.86.7,1.73,1.25,3.67,1.88,5.8,1.88s4.3-.57,6.5-1.72c2.2-1.15,4.33-2.89,6.41-5.24,2.07-2.35,3.92-5.24,5.53-8.68.56-1.15.7-2.37.42-3.68-.28-1.3-1.04-2.43-2.28-3.36-1.05-.83-1.73-1.04-2.04-.63-5.7,5.84-10.74,10.67-15.14,14.48-4.4,3.81-8.51,6.94-12.35,9.39-3.84,2.45-7.54,4.28-11.1,5.48-3.56,1.2-7.35,2.01-11.38,2.43-1.49.21-3.08.18-4.78-.08-1.7-.26-3.31-.73-4.83-1.41-1.52-.68-2.88-1.51-4.09-2.5-1.21-.99-2.09-2.16-2.65-3.52-.5-1.15-.65-2.09-.46-2.82.19-.73.71-.99,1.58-.78,5.45.84,10.59,1.02,15.42.55,4.83-.47,9.53-1.67,14.12-3.6,4.58-1.93,9.09-4.62,13.51-8.06,4.43-3.44,8.93-7.67,13.51-12.68.43-.52.62-1.1.56-1.72-.06-.63-.34-1.04-.84-1.25-.99-.42-1.86-.26-2.6.47-5.82,5.53-11.05,9.86-15.7,12.99-4.64,3.13-9.13,5.43-13.47,6.89-1.8.63-3.53.6-5.2-.08-1.67-.68-2.76-1.69-3.25-3.05-.43-.94-.57-1.67-.42-2.19.15-.52.66-.88,1.53-1.1,7-1.98,12.72-4.35,17.18-7.12,4.46-2.76,8.17-5.97,11.14-9.62.43-.52.6-1.07.51-1.64-.09-.57-.39-.96-.88-1.17-.68-.21-1.24-.26-1.67-.16-.43.11-.81.26-1.11.47-5.02,3.97-9.78,7.2-14.3,9.7-4.52,2.5-8.3,4.02-11.33,4.54-1.18.21-2.17.34-2.97.39-.81.05-1.52-.08-2.14-.39-.62-.31-1.15-.76-1.58-1.33-.43-.57-.87-1.38-1.3-2.43-.5-1.15-.62-2.01-.37-2.58.25-.57.9-.96,1.95-1.17,3.65-.73,6.79-1.49,9.43-2.27,2.63-.78,4.92-1.64,6.87-2.58,1.95-.94,3.64-2.03,5.06-3.29,1.42-1.25,2.79-2.66,4.09-4.23.93-1.15,1.38-1.88,1.35-2.19-.03-.31-.39-.47-1.07-.47h-2.37c-.96,0-1.75.05-2.37.16-.68.21-1.24.57-1.67,1.1-1.36,1.56-2.55,2.03-3.58,1.41-1.02-.63-1.69-2.29-2-5.01-.12-1.04-.29-2.71-.51-5.01-.22-2.29-.43-4.69-.65-7.2-.22-2.5-.42-4.88-.6-7.12-.19-2.24-.28-3.83-.28-4.77-.12-3.34.01-5.84.42-7.51.4-1.67.98-2.97,1.72-3.91,1.05-1.35,2.09-2.11,3.11-2.27,1.02-.16,1.87.6,2.55,2.27.12.21.25.39.37.55.12.16.25.23.37.23,2.17.21,3.95.34,5.34.39,1.39.05,2.55.03,3.48-.08,3.34-.21,6.39-.26,9.15-.16,2.75.1,5.37.42,7.85.94,2.72.63,4.52.52,5.39-.31,1.18-1.15,2.31-1.64,3.39-1.49,1.08.16,2.06.76,2.93,1.8.93,1.15,1.52,2.53,1.76,4.15.25,1.62.12,3.83-.37,6.65-.19,1.04-.34,2.45-.46,4.23-.12,1.77-.25,3.63-.37,5.56-.12,1.93-.23,3.81-.33,5.63-.09,1.83-.14,3.26-.14,4.3-.06,1.78-.33,3.23-.79,4.38-.46,1.15-1.07,2.03-1.81,2.66-.74.63-1.56.99-2.46,1.1-.9.11-1.81-.1-2.74-.63-.68-.42-1.3-.7-1.86-.86-.56-.16-1.15-.34-1.76-.55-.62-.1-1.86-.26-3.71-.47-1.18-.21-1.75-.08-1.72.39.03.47.85,1.17,2.46,2.11,2.66,1.56,5.37,3.03,8.13,4.38,2.75,1.36,5.35,2.5,7.8,3.44,2.45.94,4.63,1.64,6.55,2.11,1.92.47,3.4.7,4.46.7s1.83.29,2.32.86c.5.57.99,1.75,1.49,3.52ZM67.81,26.34c-.12-1.46-.29-2.37-.51-2.74-.22-.36-.76-.65-1.63-.86-1.86-.21-3.71-.39-5.57-.55-1.86-.16-3.82-.26-5.9-.31-2.08-.05-4.32-.02-6.73.08-2.41.1-5.08.21-7.99.31-.62,0-.93.52-.93,1.56v3.91c0,1.04.31,1.56.93,1.56,2.1-.1,4.36-.18,6.78-.23,2.41-.05,4.83-.05,7.24,0,2.42.05,4.77.13,7.06.23,2.29.1,4.36.26,6.22.47.68,0,1.02-.52,1.02-1.56v-1.88ZM67.53,37.92c.12-1.15-.19-1.72-.93-1.72-4.89-.21-9.49-.31-13.79-.31s-8.65.16-13.05.47c-.81,0-1.11.63-.93,1.88.06.42.09.86.09,1.33v1.33c0,1.04.28,1.56.84,1.56,1.92.21,4.04.37,6.36.47,2.32.1,4.63.21,6.92.31,2.29.1,4.43.16,6.41.16h4.92c1.61,0,2.54-.63,2.79-1.88.06-.42.12-.94.19-1.56.06-.63.12-1.3.19-2.03Z" fill="#cdcebe"/><path d="M132.63,64.21c.5,2.61.45,4.41-.14,5.4-.59.99-1.5.65-2.74-1.02-.56-.83-1.27-2.19-2.14-4.07-.31-.73-.68-.89-1.11-.47-1.18,1.77-2.08,2.92-2.69,3.44-.62.52-1.39.99-2.32,1.41-2.04.84-4.01,1.77-5.9,2.82-1.89,1.04-3.36,1.98-4.41,2.82-2.11,1.88-3.68.37-4.74-4.54-.31-1.56-.33-3.1-.05-4.62.28-1.51.94-2.58,2-3.21.5-.21,1.13-.89,1.9-2.03.77-1.15,1.96-3.02,3.58-5.63.5-.83.63-1.56.42-2.19-.22-.63-.6-.73-1.16-.31-.62.42-1.19.78-1.72,1.1-.53.31-1.07.57-1.63.78-1.42.63-2.48.6-3.16-.08-.68-.68-1.3-2.16-1.86-4.46-.62-2.61-.71-4.69-.28-6.26.43-1.56,1.45-2.97,3.06-4.23,4.7-3.65,8.85-11.58,12.45-23.79.74-2.5,1.79-4.12,3.16-4.85,1.36-.73,2.72,0,4.09,2.19,1.42,2.3,2,4.51,1.72,6.65-.28,2.14-1.29,4.25-3.02,6.34-1.55,1.88-3.25,4.02-5.11,6.42-1.86,2.4-3.41,4.49-4.64,6.26-1.73,2.4-2.59,4.36-2.55,5.87.03,1.51.76,2.17,2.18,1.96.87-.1,1.78-.44,2.74-1.02.96-.57,1.69-1.23,2.18-1.96.8-1.15,1.56-2.4,2.28-3.76.71-1.35,1.16-2.35,1.35-2.97,1.18-3.34,2.48-5.22,3.9-5.63,1.42-.42,2.6.57,3.53,2.97,1.18,2.92.8,5.84-1.11,8.76-2.11,3.03-4.3,5.92-6.59,8.69-2.29,2.77-4.4,5.14-6.32,7.12-1.43,1.46-2.04,2.58-1.86,3.36.19.78,1.05.91,2.6.39.87-.21,1.8-.63,2.79-1.25.99-.63,2.04-1.35,3.16-2.19.43-.42.71-1.2.84-2.35.12-1.46.33-2.68.6-3.68.28-.99.76-1.59,1.44-1.8.99-.21,1.83.13,2.51,1.02.68.89,1.11,2.06,1.3,3.52.12,1.36.33,2.79.6,4.3.28,1.51.57,3.1.88,4.77ZM115.64,96.75c.5,2.09.45,3.42-.14,3.99-.59.57-1.53.29-2.83-.86-.81-.73-1.56-1.64-2.28-2.74-.71-1.1-1.33-2.24-1.86-3.44-.53-1.2-.96-2.4-1.3-3.6-.34-1.2-.54-2.32-.6-3.36-.12-1.77.03-3.34.46-4.69.43-1.35,1.08-2.14,1.95-2.35,2.66-.94,4.12.37,4.36,3.91.19,2.09.46,4.28.84,6.57.37,2.3.84,4.49,1.39,6.57ZM125.02,91.59c.49,2.09.46,3.5-.09,4.23-.56.73-1.46.52-2.69-.63-1.61-1.46-2.9-3.34-3.85-5.63-.96-2.29-1.53-4.48-1.72-6.57-.12-1.88.01-3.52.42-4.93.4-1.41,1.04-2.32,1.9-2.74,1.24-.31,2.21-.08,2.93.7.71.78,1.16,1.96,1.35,3.52.12,2.09.34,4.12.65,6.1.31,1.98.68,3.97,1.11,5.95ZM131.33,90.34c-.43-.52-.94-1.23-1.53-2.11-.59-.89-1.18-1.88-1.76-2.97-.59-1.1-1.1-2.27-1.53-3.52-.43-1.25-.71-2.5-.84-3.76-.19-1.46-.09-2.82.28-4.07.37-1.25,1.15-2.09,2.32-2.5.93-.31,1.73-.13,2.41.55.68.68,1.15,1.8,1.39,3.36.12,1.36.34,3.18.65,5.48.31,2.3.8,4.38,1.49,6.26.68,2.09.68,3.47,0,4.15-.68.68-1.64.39-2.88-.86ZM182.41,95.35c-.19,1.78-.73,3.13-1.62,4.07-.9.94-2.25,1.31-4.04,1.1-.87-.1-2.45-.18-4.74-.23-2.29-.05-4.98-.08-8.08-.08s-6.44.03-10.03.08c-3.59.05-7.09.13-10.49.23-.81,0-1.81.13-3.02.39-1.21.26-2.43.65-3.67,1.17-1.42.63-2.59.81-3.48.55-.9-.26-1.52-.81-1.86-1.64-.34-.83-.39-1.9-.14-3.21.25-1.3.8-2.69,1.67-4.15,1.05-1.77,2.01-2.95,2.88-3.52.87-.57,1.64-.65,2.32-.23.68.42,1.27.68,1.76.78.5.1,1.11.16,1.86.16,1.42-.1,2.82-.18,4.18-.23,1.36-.05,2.66-.08,3.9-.08.87,0,1.3-.83,1.3-2.5v-7.67c0-.94-.09-1.59-.28-1.96-.19-.36-.59-.49-1.21-.39-.81,0-1.64.13-2.51.39-.87.26-2.2.81-3.99,1.64-1.24.52-2.24.65-3.02.39-.77-.26-1.3-.78-1.58-1.56-.28-.78-.29-1.77-.05-2.97.25-1.2.74-2.43,1.49-3.68,1.42-2.29,2.65-3.65,3.67-4.07,1.02-.42,1.93-.36,2.74.16.43.42,1.21.63,2.32.63,1.05-.1,1.72-.31,2-.63s.42-.89.42-1.72c-.12-4.38.17-7.48.88-9.31.71-1.82,1.81-2.68,3.3-2.58,1.61.21,2.94,1.28,3.99,3.21,1.05,1.93,1.61,4.56,1.67,7.9,0,1.25.11,2.09.33,2.5.22.42.57.63,1.07.63,1.3.1,2.65.18,4.04.23,1.39.05,2.89.18,4.5.39,1.86.21,2.54,1.72,2.04,4.54-.25,1.67-.71,2.84-1.39,3.52-.68.68-1.86.97-3.53.86-.99-.1-1.94-.18-2.83-.23-.9-.05-1.78-.08-2.65-.08-.5,0-.87.16-1.11.47-.25.31-.37,1.04-.37,2.19,0,1.25-.02,2.53-.05,3.83-.03,1.31-.05,2.64-.05,3.99,0,.84.09,1.36.28,1.56.19.21.53.31,1.02.31,3.16-.1,6.19-.13,9.1-.08,2.91.05,5.76.13,8.54.23,1.24,0,2.01.29,2.32.86.31.57.37,1.85.19,3.83ZM136.63,53.1c1.61-.52,3.36-1.43,5.25-2.74,1.89-1.3,4.32-3.31,7.29-6.02.8-.73.77-1.41-.09-2.03-.62-.52-1.21-.96-1.76-1.33-.56-.36-1.18-.81-1.86-1.33-1.67-1.35-3.31-2.03-4.92-2.03-.74,0-1.32-.31-1.72-.94-.4-.63-.6-1.41-.6-2.35s.22-1.88.65-2.82c.43-.94,1.11-1.72,2.04-2.35,1.49-1.04,2.71-1.43,3.67-1.17.96.26,1.93,1.12,2.93,2.58.31.52.76,1.04,1.35,1.56.59.52,1.5,1.2,2.74,2.03.43.31.88.63,1.35.94s.98.73,1.53,1.25c.8.73,1.55.63,2.23-.31.87-1.15,1.63-2.24,2.28-3.29.65-1.04,1.31-2.14,2-3.29,1.05-1.77,1.47-3.1,1.25-3.99-.22-.89-.88-1.33-2-1.33s-2.31.03-3.58.08c-1.27.05-2.48.1-3.62.16-1.15.05-2.18.13-3.11.23-.93.11-1.61.21-2.04.31-1.61.42-3.39.91-5.34,1.49-1.95.57-3.36,1.17-4.23,1.8-.87.52-1.61.6-2.23.23-.62-.36-1.07-1.02-1.35-1.96s-.37-2.03-.28-3.29.42-2.5.98-3.76c.5-1.04,1.1-1.96,1.81-2.74.71-.78,1.44-1.41,2.18-1.88.74-.47,1.44-.73,2.09-.78.65-.05,1.16.13,1.53.55.8.73,1.92,1.1,3.34,1.1,2.23-.1,4.63-.13,7.2-.08,2.57.05,5.09.18,7.57.39.56.1,1.02.08,1.39-.08.37-.16.9-.49,1.58-1.02,1.18-.83,2.35-1.17,3.53-1.02,1.18.16,2.26,1.23,3.25,3.21,1.18,2.3,1.64,4.44,1.39,6.42-.25,1.98-1.27,4.33-3.06,7.04-2.54,3.65-4.64,6.89-6.32,9.7-.56.94-.56,1.56,0,1.88,4.27,2.61,8.36,4.62,12.26,6.02,3.9,1.41,7.62,2.48,11.14,3.21.87.21,1.39.84,1.58,1.88.19,1.04-.16,2.45-1.02,4.23-2.79,5.53-5.36,8.66-7.71,9.39-2.35.73-4.61-.21-6.78-2.82-2.54-3.13-4.86-5.79-6.97-7.98-2.11-2.19-4.46-4.38-7.06-6.57-.93-.73-1.73-.63-2.42.31-1.86,2.4-3.96,4.69-6.31,6.89-2.35,2.19-4.86,4.17-7.52,5.95-.93.63-1.87.91-2.83.86-.96-.05-1.84-.34-2.65-.86-2.35-1.67-3.51-3.47-3.48-5.4.03-1.93,1.19-3.31,3.48-4.15Z" fill="#cdcebe"/><path d="M280.67,43.71c-.12,1.56-.76,3.34-1.9,5.32-1.15,1.98-2.83,3.86-5.06,5.63-.87.63-1.73,1.1-2.6,1.41-.87.31-1.87.39-3.02.23-1.15-.16-2.48-.6-3.99-1.33-1.52-.73-3.33-1.77-5.43-3.13-1.3-.83-2.8-1.56-4.5-2.19-1.7-.63-4.01-1.25-6.92-1.88-2.17-.52-4.43-.86-6.78-1.02-2.35-.16-5.2-.18-8.54-.08-2.85.11-5.71.31-8.59.63-2.88.31-5.68.73-8.41,1.25-2.73.52-5.29,1.23-7.71,2.11-2.41.89-4.55,1.9-6.41,3.05-1.86,1.15-3.44,1.54-4.74,1.17-1.3-.36-1.98-1.9-2.04-4.62,0-.63.11-1.43.33-2.43.22-.99.54-1.98.98-2.97.43-.99.94-1.96,1.53-2.9.59-.94,1.22-1.72,1.9-2.35,1.55-1.35,2.91-2.22,4.09-2.58,1.18-.36,2.29-.29,3.34.23,1.73.84,3.17,1.41,4.32,1.72,1.15.31,2.4.37,3.76.16,2.6-.21,4.95-.39,7.06-.55,2.1-.16,4.4-.29,6.87-.39,1.05,0,1.78-.21,2.18-.63.4-.42.66-1.25.79-2.5.19-1.46.29-2.87.32-4.23.03-1.35-.02-2.45-.14-3.29-.43-3.13-.67-5.66-.7-7.59-.03-1.93.15-3.42.56-4.46.4-1.04,1.07-1.67,2-1.88.93-.21,2.14-.16,3.62.16.62.1,1.27.57,1.95,1.41.68.84,1.31,1.85,1.9,3.05.59,1.2,1.05,2.5,1.39,3.91.34,1.41.45,2.79.32,4.15-.12,1.46-.22,3-.28,4.62-.06,1.62-.09,3.21-.09,4.77,0,.94.14,1.59.42,1.96.28.37.85.6,1.72.7,1.11.1,2.31.18,3.58.23,1.27.05,2.52.13,3.76.23,3.16.21,6.28.37,9.38.47,3.1.1,5.91.21,8.45.31,2.54.1,4.67.16,6.41.16s2.82-.05,3.25-.16c.74-.21,1.25-.02,1.53.55.28.57.33,1.75.14,3.52ZM231.45,75.94c-1.55,2.82-3.68,5.69-6.41,8.61-2.73,2.92-5.53,5.56-8.4,7.9s-5.54,4.17-7.99,5.48c-2.45,1.31-4.16,1.7-5.15,1.17-1.42-.73-2.28-1.62-2.55-2.66-.28-1.04.26-2.09,1.63-3.13,1.49-1.15,2.88-2.29,4.18-3.44,1.3-1.15,2.62-2.45,3.95-3.91,1.33-1.46,2.72-3.1,4.18-4.93,1.45-1.82,3.08-3.99,4.88-6.49.43-.63.91-1.62,1.44-2.97.53-1.35,1.13-3.39,1.81-6.1.25-1.25.63-2.29,1.16-3.13.53-.83,1.16-1.3,1.9-1.41.74-.1,1.55.21,2.41.94.87.73,1.83,2.03,2.88,3.91,1.11,2.09,1.72,3.76,1.81,5.01.09,1.25-.48,2.97-1.72,5.16ZM272.5,103.95c-.5,1.04-1.19,1.64-2.09,1.8-.9.16-1.78-.18-2.65-1.02-1.67-1.56-3.24-3.08-4.69-4.54-1.46-1.46-3-3.05-4.64-4.77-1.64-1.72-3.47-3.7-5.48-5.95-2.01-2.24-4.41-4.93-7.2-8.06-2.23-2.5-3.47-5.14-3.71-7.9-.25-2.76.43-5.61,2.04-8.53.43-.83.98-1.49,1.63-1.96.65-.47,1.28-.76,1.9-.86.62-.1,1.19-.02,1.72.23.52.26.88.7,1.07,1.33.25.84.49,1.59.74,2.27.25.68.53,1.38.84,2.11.31.73.66,1.56,1.07,2.5.4.94.94,2.03,1.62,3.29,1.05,2.09,2.1,3.99,3.16,5.71,1.05,1.72,2.23,3.5,3.53,5.32,1.3,1.83,2.82,3.78,4.55,5.87,1.73,2.09,3.78,4.44,6.13,7.04.87.94,1.33,1.85,1.39,2.74.06.89-.25,2.01-.93,3.36Z" fill="#cdcebe"/><path d="M374.01,44.8c-1.49,6.68-3.87,11.32-7.15,13.93-.87.63-1.66,1.12-2.37,1.49-.71.37-1.59.44-2.65.23-1.05-.21-2.42-.7-4.09-1.49-1.67-.78-3.84-1.96-6.5-3.52-1.3-.73-2.49-1.35-3.58-1.88-1.08-.52-2.21-.94-3.39-1.25-1.18-.31-2.46-.57-3.85-.78-1.39-.21-3.08-.42-5.06-.63-.68-.1-1.11,0-1.3.31-.19.31-.28,1.25-.28,2.82-.12,7.1-.22,14.19-.28,21.28-.06,7.1-.15,13.61-.28,19.56-.12,4.59-.57,7.77-1.35,9.55-.77,1.77-2.15,2.56-4.13,2.35-1.11-.1-2-.89-2.65-2.35-.65-1.46-1.01-4.17-1.07-8.14-.12-5.63-.22-12.15-.28-19.56-.06-7.41-.12-15.34-.19-23.79,0-1.15-.11-1.85-.33-2.11-.22-.26-.73-.39-1.53-.39-4.33,0-8.25.18-11.75.55-3.5.37-6.39.86-8.68,1.49-.81.21-1.56.47-2.28.78-.71.31-1.47.65-2.28,1.02-.81.37-1.69.84-2.65,1.41-.96.57-2.06,1.23-3.3,1.96-1.86,1.15-3.25.97-4.18-.55-.93-1.51-1.24-3.78-.93-6.81.12-1.35.7-2.76,1.72-4.23,1.02-1.46,2.83-3.34,5.43-5.63.62-.52,1.39-.86,2.32-1.02.93-.16,1.83-.02,2.69.39,1.42.63,3.06,1.1,4.92,1.41s3.5.37,4.92.16c1.92-.21,4.05-.42,6.41-.63,2.35-.21,4.92-.42,7.71-.63.74-.1,1.21-.34,1.39-.7.19-.36.28-1.23.28-2.58-.06-2.09-.09-4.35-.09-6.81v-6.96c0-4.38.39-7.35,1.16-8.92.77-1.56,1.96-2.09,3.58-1.56,1.36.42,2.46.94,3.3,1.56s1.45,1.49,1.86,2.58c.4,1.1.65,2.5.74,4.23.09,1.72.11,3.83.05,6.34-.06,1.36-.08,2.87-.05,4.54.03,1.67.01,3.23-.05,4.69-.06,1.46,0,2.4.19,2.82.19.42.62.63,1.3.63h5.43c1.89,0,3.73.1,5.53.31,3.96.21,7.43.37,10.4.47,2.97.1,5.51.16,7.62.16s3.81-.05,5.11-.16c1.3-.1,2.32-.21,3.06-.31.99-.21,1.56.03,1.72.7.15.68.05,1.9-.33,3.68Z" fill="#cdcebe"/><path d="M459.73,37.45c-.31,1.56-.62,4.2-.93,7.9-.31,3.7-.6,7.9-.88,12.6-.28,4.69-.53,9.65-.74,14.87-.22,5.22-.36,10.07-.42,14.55-.12,3.76-.45,6.6-.98,8.53-.53,1.93-1.41,3.47-2.65,4.62-.5.52-1.08.89-1.76,1.1-.68.21-1.35.31-2,.31s-1.24-.1-1.76-.31c-.53-.21-.88-.52-1.07-.94-.5-.94-.91-1.67-1.25-2.19-.34-.52-.73-.94-1.16-1.25-.43-.31-.99-.52-1.67-.63-.68-.1-1.58-.26-2.69-.47-3.03-.52-6.27-.94-9.71-1.25-3.44-.31-6.89-.49-10.36-.55-3.47-.05-6.89,0-10.26.16-3.38.16-6.49.45-9.33.86-.37,0-.62.31-.74.94-.56,1.98-1.39,3.29-2.51,3.91-1.11.63-2.17.57-3.16-.16-.74-.52-1.38-1.33-1.9-2.43-.53-1.1-.96-2.74-1.3-4.93-.34-2.19-.59-5.03-.74-8.53-.16-3.49-.23-7.9-.23-13.22,0-2.61-.03-5.34-.09-8.22-.06-2.87-.17-5.63-.32-8.29-.16-2.66-.33-5.16-.51-7.51-.19-2.35-.37-4.35-.56-6.02-.43-3.54-.74-6.36-.93-8.45-.19-2.09-.2-3.78-.05-5.09.15-1.3.46-2.35.93-3.13.46-.78,1.13-1.59,2-2.43,2.66-2.61,4.67-2.29,6.04.94.12.52.34.78.65.78,3.53,0,7-.1,10.4-.31,3.4-.21,6.19-.36,8.36-.47,2.79-.1,5.19-.16,7.2-.16s3.9.08,5.67.23c1.76.16,3.54.39,5.34.7,1.8.31,3.87.73,6.22,1.25,1.92.42,3.44.7,4.55.86,1.11.16,2.04.18,2.79.08.74-.1,1.36-.36,1.86-.78.5-.42,1.08-1.04,1.76-1.88,1.18-1.35,2.21-1.98,3.11-1.88.9.1,2,.78,3.3,2.03,1.61,1.56,2.58,3.5,2.93,5.79.34,2.3.2,5.11-.42,8.45ZM410.69,34.63c0-.94-.31-1.41-.93-1.41h-4.27c-1.18,0-2.21.03-3.11.08-.9.05-1.72.13-2.46.23-.74.1-1.52.21-2.32.31-.56.21-.84.73-.84,1.56-.12,3.65-.14,8.03-.05,13.14.09,5.11.2,10.07.33,14.87,0,1.25.34,1.77,1.02,1.56,4.7-.83,8.06-3.65,10.08-8.45,2.01-4.8,2.86-12.1,2.55-21.91ZM448.86,71.4c.19-1.88.15-2.92-.09-3.13-.25-.21-.74.37-1.49,1.72-1.42,2.5-2.85,4.36-4.27,5.56-1.43,1.2-3.31,1.59-5.67,1.17-2.54-.42-4.85-1.62-6.92-3.6-2.08-1.98-3.85-4.9-5.34-8.76-1.05-2.71-1.56-6.49-1.53-11.35.03-4.85.51-10.72,1.44-17.6.19-1.25-.12-1.88-.93-1.88-.68,0-1.42-.02-2.23-.08-.81-.05-1.61-.08-2.42-.08-.62,0-.93.47-.93,1.41-.12,3.03-.31,6.16-.56,9.39-.25,3.23-.53,5.79-.84,7.67-.68,4.49-1.75,8.06-3.2,10.72-1.46,2.66-2.99,4.88-4.6,6.65-3.53,3.97-7.09,5.63-10.68,5.01-.81-.1-1.15.52-1.02,1.88.12,1.04.19,2.27.19,3.68s.06,2.53.19,3.36c.06.84.4,1.25,1.02,1.25,3.53-.31,7.44-.55,11.75-.7,4.3-.16,8.48-.18,12.54-.08,4.05.1,7.75.26,11.1.47,3.34.21,5.82.47,7.43.78,1.8.31,3.17.16,4.13-.47.96-.63,1.63-1.93,2-3.91.12-.63.26-1.85.42-3.68.15-1.82.32-3.62.51-5.4ZM450.16,44.8c0-3.65-.22-6.13-.65-7.43-.43-1.3-1.52-2.22-3.25-2.74-.37-.1-.76-.21-1.16-.31-.4-.1-1.02-.18-1.86-.23-.84-.05-2-.1-3.48-.16-1.49-.05-3.47-.13-5.94-.23-.25,0-.5.21-.74.63-1.24,3.03-2.04,6.18-2.41,9.47s-.37,6.29,0,9c.31,2.19,1.22,4.2,2.74,6.02,1.52,1.83,3.64,2.84,6.36,3.05,2.17.21,3.87-.16,5.11-1.1,1.24-.94,2.48-2.61,3.71-5.01.5-1.04.88-2.32,1.16-3.83.28-1.51.42-3.89.42-7.12Z" fill="#cdcebe"/><path d="M521.68,86.58c-1.67,1.25-3.84,2.53-6.5,3.83-2.66,1.31-5.71,2.58-9.15,3.83-3.44,1.25-7.18,2.43-11.24,3.52-4.06,1.1-8.31,2.06-12.77,2.9-2.17.42-3.71.39-4.64-.08-.93-.47-1.61-1.28-2.04-2.43-.31-.83-.56-1.82-.74-2.97-.19-1.15-.22-2.4-.09-3.76.19-2.5,1.39-3.76,3.62-3.76,2.6-.1,5.43-.29,8.5-.55,3.06-.26,6.24-.65,9.52-1.17.62-.1.93-.63.93-1.56.06-3.65.06-7.56,0-11.74,0-.52-.11-.88-.33-1.1-.22-.21-.67-.26-1.35-.16-2.35.21-4.4.52-6.13.94-1.73.42-2.97.89-3.71,1.41-1.49,1.04-2.77,1.44-3.85,1.17-1.08-.26-1.72-1.02-1.9-2.27-.19-1.35-.12-2.58.19-3.68.31-1.1.99-2.32,2.04-3.68,1.61-1.98,3.13-2.66,4.55-2.03.49.21,1.31.34,2.46.39,1.15.05,2.31.03,3.48-.08.43-.1.94-.16,1.53-.16s1.22-.05,1.9-.16c.43,0,.71-.52.84-1.56.12-1.46.33-2.69.6-3.68.28-.99.82-1.85,1.62-2.58.87-.73,1.92-1.02,3.16-.86,1.24.16,2.2.81,2.88,1.96.25.42.43.97.56,1.64.12.68.22,1.75.28,3.21,0,1.15.37,1.72,1.11,1.72,1.36-.1,2.75-.16,4.18-.16h4.27c1.11,0,1.98.26,2.6.78.62.52.9,1.15.84,1.88-.12,3.13-1.46,4.8-3.99,5.01-1.18.1-2.46.18-3.85.23-1.39.05-2.8.13-4.23.23-.43,0-.73.08-.88.23-.16.16-.23.65-.23,1.49-.06,1.36-.11,2.87-.14,4.54-.03,1.67-.05,3.44-.05,5.32,0,1.36.37,1.98,1.11,1.88,2.54-.52,4.94-.96,7.2-1.33,2.26-.36,4.41-.81,6.45-1.33,1.55-.31,2.48.18,2.79,1.49.31,1.31-.16,2.37-1.39,3.21ZM522.23,47.46c.12,1.46-.16,2.56-.84,3.29-.68.73-1.73,1.1-3.16,1.1-1.11,0-2.55.03-4.32.08-1.76.05-3.64.13-5.62.23-1.98.1-4.03.18-6.13.23-2.11.05-4.06.08-5.85.08-3.41,0-6.3.23-8.68.7-2.38.47-4.07.97-5.06,1.49-1.42.84-2.62,1.28-3.58,1.33-.96.05-1.56-.34-1.81-1.17-.37-1.15-.45-2.35-.23-3.6.22-1.25.91-2.61,2.09-4.07,1.61-1.98,3.13-2.66,4.55-2.03.5.21,1.31.34,2.46.39,1.15.05,2.31.03,3.48-.08.56-.1,1.45-.18,2.69-.23,1.24-.05,2.66-.08,4.27-.08.49,0,.82-.13.98-.39.15-.26.23-.91.23-1.96v-7.67c0-.52-.08-.86-.23-1.02-.16-.16-.48-.23-.98-.23-2.35.21-4.33.47-5.94.78-1.61.31-2.79.73-3.53,1.25-2.85,1.98-4.58,1.93-5.2-.16-.99-3.13-.56-5.79,1.3-7.98,1.61-1.98,3.13-2.66,4.55-2.03.5.21,1.31.34,2.46.39,1.15.05,2.31.03,3.48-.08.43-.1.9-.16,1.39-.16h1.76c.31,0,.53-.16.65-.47.12-.31.19-.94.19-1.88,0-1.25-.02-2.56-.05-3.91-.03-1.35-.08-2.76-.14-4.23-.06-1.56.19-2.95.74-4.15.56-1.2,1.24-1.85,2.04-1.96,1.42-.1,2.58.13,3.48.7.9.57,1.78,1.59,2.65,3.05.5.84.8,1.98.93,3.44.12,1.46.03,3.81-.28,7.04-.12.84-.12,1.36,0,1.56.12.21.43.31.93.31h6.97c2.1,0,3.25.89,3.44,2.66.12,1.46-.08,2.56-.6,3.29-.53.73-1.53,1.2-3.02,1.41-.99.11-2.12.21-3.39.31-1.27.11-2.59.21-3.95.31-.74,0-1.11.52-1.11,1.56-.06,1.36-.09,2.69-.09,3.99v4.15c0,.84.08,1.36.23,1.56.15.21.45.31.88.31,1.98-.1,3.96-.16,5.94-.16h5.57c2.1,0,3.25.89,3.44,2.66ZM556.23,64.52c1.05.63,1.81,1.38,2.28,2.27.46.89.67,1.72.6,2.5-.06.78-.39,1.41-.98,1.88-.59.47-1.41.55-2.46.23-1.3-.31-2.77-.81-4.41-1.49-1.64-.68-3.34-1.43-5.11-2.27-1.76-.83-3.56-1.77-5.39-2.82-1.83-1.04-3.58-2.14-5.25-3.29-.81-.52-1.32-.65-1.53-.39-.22.26-.33,1.02-.33,2.27,0,6.26.05,12.39.14,18.39.09,6,.23,11.24.42,15.73.06,1.46.05,2.71-.05,3.76-.09,1.04-.36,1.96-.79,2.74-.43.78-1.04,1.49-1.81,2.11-.77.63-1.81,1.15-3.11,1.56-1.61.63-2.71.34-3.3-.86-.59-1.2-.82-3.47-.7-6.81.19-4.38.34-9.23.46-14.55.12-5.32.2-11.19.23-17.6.03-6.42.05-13.48.05-21.2s-.06-16.22-.19-25.51c0-2.19.05-3.94.14-5.24.09-1.3.29-2.32.6-3.05.31-.73.73-1.2,1.25-1.41.53-.21,1.22-.26,2.09-.16,2.17.21,3.73,1.23,4.69,3.05.96,1.83,1.22,4.77.79,8.84-.12,1.67-.26,4.12-.42,7.35-.16,3.23-.29,6.99-.42,11.27-.06,1.98.06,3.34.37,4.07.31.73.93,1.62,1.86,2.66,1.3,1.36,2.79,2.79,4.46,4.3,1.67,1.51,3.4,2.97,5.2,4.38,1.8,1.41,3.61,2.74,5.43,3.99,1.83,1.25,3.54,2.35,5.15,3.29Z" fill="#cdcebe"/><path d="M86.17,59.64c.31,1.15.31,2.43,0,3.83-.31,1.41-.93,2.69-1.86,3.83-1.49,1.78-2.83,3.57-4.04,5.4-1.21,1.83-2.09,3.42-2.65,4.77-.74,1.77-1.73,3.65-2.97,5.63-1.24,1.98-2.63,3.91-4.18,5.79-1.55,1.88-3.2,3.55-4.97,5.01-1.76,1.46-3.51,2.5-5.25,3.13-1.73.63-3.47.73-5.2.31-1.73-.42-3.34-1.2-4.83-2.35-1.49-1.15-2.74-2.58-3.76-4.3-1.02-1.72-1.66-3.62-1.9-5.71-.19-1.46-.16-2.32.09-2.58.25-.26.87-.02,1.86.7,1.73,1.25,3.67,1.88,5.8,1.88s4.3-.57,6.5-1.72c2.2-1.15,4.33-2.89,6.41-5.24,2.07-2.35,3.92-5.24,5.53-8.68.56-1.15.7-2.37.42-3.68-.28-1.3-1.04-2.43-2.28-3.36-1.05-.83-1.73-1.04-2.04-.63-5.7,5.84-10.74,10.67-15.14,14.48-4.4,3.81-8.51,6.94-12.35,9.39-3.84,2.45-7.54,4.28-11.1,5.48-3.56,1.2-7.35,2.01-11.38,2.43-1.49.21-3.08.18-4.78-.08-1.7-.26-3.31-.73-4.83-1.41-1.52-.68-2.88-1.51-4.09-2.5-1.21-.99-2.09-2.16-2.65-3.52-.5-1.15-.65-2.09-.46-2.82.19-.73.71-.99,1.58-.78,5.45.84,10.59,1.02,15.42.55,4.83-.47,9.53-1.67,14.12-3.6,4.58-1.93,9.09-4.62,13.51-8.06,4.43-3.44,8.93-7.67,13.51-12.68.43-.52.62-1.1.56-1.72-.06-.63-.34-1.04-.84-1.25-.99-.42-1.86-.26-2.6.47-5.82,5.53-11.05,9.86-15.7,12.99-4.64,3.13-9.13,5.43-13.47,6.89-1.8.63-3.53.6-5.2-.08-1.67-.68-2.76-1.69-3.25-3.05-.43-.94-.57-1.67-.42-2.19.15-.52.66-.88,1.53-1.1,7-1.98,12.72-4.35,17.18-7.12,4.46-2.76,8.17-5.97,11.14-9.62.43-.52.6-1.07.51-1.64-.09-.57-.39-.96-.88-1.17-.68-.21-1.24-.26-1.67-.16-.43.11-.81.26-1.12.47-5.01,3.97-9.78,7.2-14.3,9.7-4.52,2.5-8.3,4.02-11.33,4.54-1.18.21-2.17.34-2.97.39-.81.05-1.52-.08-2.14-.39-.62-.31-1.15-.76-1.58-1.33-.43-.57-.87-1.38-1.3-2.43-.5-1.15-.62-2.01-.37-2.58.25-.57.9-.96,1.95-1.17,3.65-.73,6.79-1.49,9.43-2.27,2.63-.78,4.92-1.64,6.87-2.58,1.95-.94,3.64-2.03,5.06-3.29,1.42-1.25,2.79-2.66,4.09-4.23.93-1.15,1.38-1.88,1.35-2.19-.03-.31-.39-.47-1.07-.47h-2.37c-.96,0-1.75.05-2.37.16-.68.21-1.24.57-1.67,1.1-1.36,1.56-2.55,2.03-3.58,1.41-1.02-.63-1.69-2.29-2-5.01-.12-1.04-.29-2.71-.51-5.01-.22-2.29-.43-4.69-.65-7.2-.22-2.5-.42-4.88-.6-7.12-.19-2.24-.28-3.83-.28-4.77-.12-3.34.01-5.84.42-7.51.4-1.67.98-2.97,1.72-3.91,1.05-1.35,2.09-2.11,3.11-2.27,1.02-.16,1.87.6,2.55,2.27.12.21.25.39.37.55.12.16.25.23.37.23,2.17.21,3.95.34,5.34.39,1.39.05,2.55.03,3.48-.08,3.34-.21,6.39-.26,9.15-.16,2.75.1,5.37.42,7.85.94,2.72.63,4.52.52,5.39-.31,1.17-1.15,2.31-1.64,3.39-1.49,1.08.16,2.06.76,2.93,1.8.93,1.15,1.52,2.53,1.76,4.15.25,1.62.12,3.83-.37,6.65-.19,1.04-.34,2.45-.46,4.23-.12,1.77-.25,3.63-.37,5.56-.12,1.93-.23,3.81-.33,5.63-.09,1.83-.14,3.26-.14,4.3-.06,1.78-.33,3.23-.79,4.38-.46,1.15-1.07,2.03-1.81,2.66s-1.56.99-2.46,1.1c-.9.11-1.81-.1-2.74-.63-.68-.42-1.3-.7-1.86-.86-.56-.16-1.15-.34-1.76-.55-.62-.1-1.86-.26-3.71-.47-1.18-.21-1.75-.08-1.72.39.03.47.85,1.17,2.46,2.11,2.66,1.56,5.37,3.03,8.13,4.38,2.75,1.36,5.36,2.5,7.8,3.44,2.45.94,4.63,1.64,6.55,2.11,1.92.47,3.4.7,4.46.7s1.83.29,2.32.86c.5.57.99,1.75,1.49,3.52ZM62.02,17.08c-.12-1.46-.29-2.37-.51-2.74-.22-.36-.76-.65-1.62-.86-1.86-.21-3.71-.39-5.57-.55-1.86-.16-3.82-.26-5.9-.31-2.08-.05-4.32-.02-6.73.08-2.42.1-5.08.21-7.99.31-.62,0-.93.52-.93,1.56v3.91c0,1.04.31,1.56.93,1.56,2.1-.1,4.37-.18,6.78-.23,2.41-.05,4.83-.05,7.24,0,2.42.05,4.77.13,7.06.23,2.29.1,4.37.26,6.22.47.68,0,1.02-.52,1.02-1.56v-1.88ZM61.74,28.66c.12-1.15-.19-1.72-.93-1.72-4.89-.21-9.49-.31-13.79-.31s-8.65.16-13.05.47c-.8,0-1.11.63-.93,1.88.06.42.09.86.09,1.33v1.33c0,1.04.28,1.56.84,1.56,1.92.21,4.04.37,6.36.47,2.32.1,4.63.21,6.92.31,2.29.1,4.43.16,6.41.16h4.92c1.61,0,2.54-.63,2.79-1.88.06-.42.12-.94.19-1.56.06-.63.12-1.3.19-2.03Z"/><path d="M126.85,54.95c.5,2.61.45,4.41-.14,5.4-.59.99-1.5.65-2.74-1.02-.56-.83-1.27-2.19-2.14-4.07-.31-.73-.68-.89-1.11-.47-1.18,1.77-2.08,2.92-2.69,3.44-.62.52-1.39.99-2.32,1.41-2.04.84-4.01,1.77-5.9,2.82-1.89,1.04-3.36,1.98-4.41,2.82-2.11,1.88-3.68.37-4.74-4.54-.31-1.56-.33-3.1-.05-4.62.28-1.51.94-2.58,2-3.21.5-.21,1.13-.89,1.9-2.03.77-1.15,1.96-3.02,3.58-5.63.5-.83.63-1.56.42-2.19-.22-.63-.6-.73-1.16-.31-.62.42-1.19.78-1.72,1.1-.53.31-1.07.57-1.63.78-1.42.63-2.48.6-3.16-.08-.68-.68-1.3-2.16-1.86-4.46-.62-2.61-.71-4.69-.28-6.26.43-1.56,1.45-2.97,3.06-4.23,4.7-3.65,8.85-11.58,12.45-23.79.74-2.5,1.79-4.12,3.16-4.85,1.36-.73,2.72,0,4.09,2.19,1.42,2.3,2,4.51,1.72,6.65-.28,2.14-1.29,4.25-3.02,6.34-1.55,1.88-3.25,4.02-5.11,6.42-1.86,2.4-3.41,4.49-4.64,6.26-1.73,2.4-2.59,4.36-2.55,5.87.03,1.51.76,2.17,2.18,1.96.87-.1,1.78-.44,2.74-1.02.96-.57,1.69-1.23,2.18-1.96.8-1.15,1.56-2.4,2.28-3.76.71-1.35,1.16-2.35,1.35-2.97,1.18-3.34,2.48-5.22,3.9-5.63,1.42-.42,2.6.57,3.53,2.97,1.18,2.92.8,5.84-1.11,8.76-2.11,3.03-4.3,5.92-6.59,8.69-2.29,2.77-4.4,5.14-6.32,7.12-1.42,1.46-2.04,2.58-1.86,3.36.19.78,1.05.91,2.6.39.87-.21,1.79-.63,2.79-1.25.99-.63,2.04-1.35,3.16-2.19.43-.42.71-1.2.84-2.35.12-1.46.33-2.68.6-3.68.28-.99.76-1.59,1.44-1.8.99-.21,1.83.13,2.51,1.02.68.89,1.12,2.06,1.3,3.52.12,1.36.33,2.79.6,4.3.28,1.51.57,3.1.88,4.77ZM109.85,87.5c.5,2.09.45,3.42-.14,3.99-.59.57-1.53.29-2.83-.86-.81-.73-1.56-1.64-2.28-2.74-.71-1.1-1.33-2.24-1.86-3.44-.53-1.2-.96-2.4-1.3-3.6-.34-1.2-.54-2.32-.6-3.36-.12-1.77.03-3.34.46-4.69.43-1.35,1.08-2.14,1.95-2.35,2.66-.94,4.12.37,4.36,3.91.19,2.09.46,4.28.84,6.57.37,2.3.84,4.49,1.39,6.57ZM119.23,82.33c.5,2.09.46,3.5-.09,4.23-.56.73-1.46.52-2.69-.63-1.61-1.46-2.89-3.34-3.85-5.63-.96-2.29-1.53-4.48-1.72-6.57-.12-1.88.01-3.52.42-4.93.4-1.41,1.04-2.32,1.9-2.74,1.24-.31,2.21-.08,2.93.7.71.78,1.16,1.96,1.35,3.52.12,2.09.34,4.12.65,6.1.31,1.98.68,3.97,1.11,5.95ZM125.55,81.08c-.43-.52-.94-1.23-1.53-2.11-.59-.89-1.18-1.88-1.76-2.97-.59-1.1-1.1-2.27-1.53-3.52-.43-1.25-.71-2.5-.84-3.76-.19-1.46-.09-2.82.28-4.07s1.15-2.09,2.32-2.5c.93-.31,1.73-.13,2.41.55.68.68,1.15,1.8,1.39,3.36.12,1.36.34,3.18.65,5.48.31,2.3.8,4.38,1.49,6.26.68,2.09.68,3.47,0,4.15-.68.68-1.64.39-2.88-.86ZM176.63,86.09c-.19,1.78-.73,3.13-1.62,4.07-.9.94-2.25,1.31-4.04,1.1-.87-.1-2.45-.18-4.74-.23-2.29-.05-4.99-.08-8.08-.08s-6.44.03-10.03.08c-3.59.05-7.09.13-10.5.23-.8,0-1.81.13-3.02.39-1.21.26-2.43.65-3.67,1.17-1.42.63-2.59.81-3.48.55-.9-.26-1.52-.81-1.86-1.64-.34-.83-.39-1.9-.14-3.21.25-1.3.8-2.69,1.67-4.15,1.05-1.77,2.01-2.95,2.88-3.52.87-.57,1.64-.65,2.32-.23.68.42,1.27.68,1.76.78.5.1,1.12.16,1.86.16,1.42-.1,2.82-.18,4.18-.23,1.36-.05,2.66-.08,3.9-.08.87,0,1.3-.83,1.3-2.5v-7.67c0-.94-.09-1.59-.28-1.96-.19-.36-.59-.49-1.21-.39-.81,0-1.64.13-2.51.39-.87.26-2.2.81-3.99,1.64-1.24.52-2.25.65-3.02.39-.77-.26-1.3-.78-1.58-1.56-.28-.78-.29-1.77-.05-2.97.25-1.2.74-2.43,1.49-3.68,1.42-2.29,2.65-3.65,3.67-4.07,1.02-.42,1.93-.36,2.74.16.43.42,1.21.63,2.32.63,1.05-.1,1.72-.31,2-.63.28-.31.42-.89.42-1.72-.12-4.38.17-7.48.88-9.31.71-1.82,1.81-2.68,3.3-2.58,1.61.21,2.94,1.28,3.99,3.21,1.05,1.93,1.61,4.56,1.67,7.9,0,1.25.11,2.09.33,2.5.22.42.57.63,1.07.63,1.3.1,2.65.18,4.04.23,1.39.05,2.89.18,4.5.39,1.86.21,2.54,1.72,2.04,4.54-.25,1.67-.71,2.84-1.39,3.52-.68.68-1.86.97-3.53.86-.99-.1-1.94-.18-2.83-.23-.9-.05-1.78-.08-2.65-.08-.5,0-.87.16-1.11.47-.25.31-.37,1.04-.37,2.19,0,1.25-.02,2.53-.05,3.83-.03,1.31-.05,2.64-.05,3.99,0,.84.09,1.36.28,1.56.19.21.53.31,1.02.31,3.16-.1,6.19-.13,9.1-.08,2.91.05,5.76.13,8.54.23,1.24,0,2.01.29,2.32.86.31.57.37,1.85.19,3.83ZM130.84,43.84c1.61-.52,3.36-1.43,5.25-2.74,1.89-1.3,4.32-3.31,7.29-6.02.8-.73.77-1.41-.09-2.03-.62-.52-1.21-.96-1.76-1.33-.56-.36-1.18-.81-1.86-1.33-1.67-1.35-3.31-2.03-4.92-2.03-.74,0-1.32-.31-1.72-.94-.4-.63-.6-1.41-.6-2.35s.22-1.88.65-2.82c.43-.94,1.11-1.72,2.04-2.35,1.49-1.04,2.71-1.43,3.67-1.17.96.26,1.93,1.12,2.93,2.58.31.52.76,1.04,1.35,1.56.59.52,1.5,1.2,2.74,2.03.43.31.88.63,1.35.94.46.31.98.73,1.53,1.25.8.73,1.55.63,2.23-.31.87-1.15,1.62-2.24,2.28-3.29.65-1.04,1.31-2.14,2-3.29,1.05-1.77,1.47-3.1,1.25-3.99-.22-.89-.88-1.33-2-1.33s-2.31.03-3.58.08c-1.27.05-2.48.1-3.62.16-1.15.05-2.18.13-3.11.23-.93.11-1.61.21-2.04.31-1.61.42-3.39.91-5.34,1.49-1.95.57-3.36,1.17-4.23,1.8-.87.52-1.61.6-2.23.23-.62-.36-1.07-1.02-1.35-1.96-.28-.94-.37-2.03-.28-3.29s.42-2.5.97-3.76c.5-1.04,1.1-1.96,1.81-2.74.71-.78,1.44-1.41,2.18-1.88.74-.47,1.44-.73,2.09-.78.65-.05,1.16.13,1.53.55.8.73,1.92,1.1,3.34,1.1,2.23-.1,4.63-.13,7.2-.08,2.57.05,5.09.18,7.57.39.56.1,1.02.08,1.39-.08.37-.16.9-.49,1.58-1.02,1.18-.83,2.35-1.17,3.53-1.02,1.17.16,2.26,1.23,3.25,3.21,1.18,2.3,1.64,4.44,1.39,6.42-.25,1.98-1.27,4.33-3.06,7.04-2.54,3.65-4.64,6.89-6.32,9.7-.56.94-.56,1.56,0,1.88,4.27,2.61,8.36,4.62,12.26,6.02s7.62,2.48,11.14,3.21c.87.21,1.39.84,1.58,1.88.19,1.04-.16,2.45-1.02,4.23-2.79,5.53-5.36,8.66-7.71,9.39-2.35.73-4.61-.21-6.78-2.82-2.54-3.13-4.86-5.79-6.97-7.98-2.11-2.19-4.46-4.38-7.06-6.57-.93-.73-1.73-.63-2.42.31-1.86,2.4-3.96,4.69-6.32,6.89-2.35,2.19-4.86,4.17-7.52,5.95-.93.63-1.87.91-2.83.86-.96-.05-1.84-.34-2.65-.86-2.35-1.67-3.51-3.47-3.48-5.4.03-1.93,1.19-3.31,3.48-4.15Z"/><path d="M274.89,34.45c-.12,1.56-.76,3.34-1.9,5.32-1.15,1.98-2.83,3.86-5.06,5.63-.87.63-1.73,1.1-2.6,1.41-.87.31-1.87.39-3.02.23-1.15-.16-2.48-.6-3.99-1.33-1.52-.73-3.33-1.77-5.43-3.13-1.3-.83-2.8-1.56-4.5-2.19-1.7-.63-4.01-1.25-6.92-1.88-2.17-.52-4.43-.86-6.78-1.02-2.35-.16-5.2-.18-8.54-.08-2.85.11-5.71.31-8.59.63s-5.68.73-8.41,1.25c-2.72.52-5.29,1.23-7.71,2.11-2.42.89-4.55,1.9-6.41,3.05-1.86,1.15-3.44,1.54-4.74,1.17-1.3-.36-1.98-1.9-2.04-4.62,0-.63.11-1.43.33-2.43.22-.99.54-1.98.98-2.97.43-.99.94-1.96,1.53-2.9.59-.94,1.22-1.72,1.9-2.35,1.55-1.35,2.91-2.22,4.09-2.58,1.18-.36,2.29-.29,3.34.23,1.73.84,3.17,1.41,4.32,1.72,1.14.31,2.4.37,3.76.16,2.6-.21,4.95-.39,7.06-.55,2.1-.16,4.4-.29,6.87-.39,1.05,0,1.78-.21,2.18-.63.4-.42.66-1.25.79-2.5.19-1.46.29-2.87.33-4.23.03-1.35-.02-2.45-.14-3.29-.43-3.13-.67-5.66-.7-7.59-.03-1.93.15-3.42.56-4.46.4-1.04,1.07-1.67,2-1.88.93-.21,2.14-.16,3.62.16.62.1,1.27.57,1.95,1.41.68.84,1.32,1.85,1.9,3.05.59,1.2,1.05,2.5,1.39,3.91.34,1.41.45,2.79.32,4.15-.12,1.46-.22,3-.28,4.62-.06,1.62-.09,3.21-.09,4.77,0,.94.14,1.59.42,1.96.28.37.85.6,1.72.7,1.12.1,2.31.18,3.58.23,1.27.05,2.52.13,3.76.23,3.16.21,6.28.37,9.38.47,3.09.1,5.91.21,8.45.31,2.54.1,4.67.16,6.41.16s2.82-.05,3.25-.16c.74-.21,1.25-.02,1.53.55.28.57.33,1.75.14,3.52ZM225.66,66.69c-1.55,2.82-3.68,5.69-6.41,8.61-2.72,2.92-5.53,5.56-8.4,7.9s-5.54,4.17-7.99,5.48c-2.45,1.31-4.17,1.7-5.15,1.17-1.42-.73-2.28-1.62-2.55-2.66-.28-1.04.26-2.09,1.63-3.13,1.49-1.15,2.88-2.29,4.18-3.44,1.3-1.15,2.62-2.45,3.95-3.91,1.33-1.46,2.72-3.1,4.18-4.93,1.45-1.82,3.08-3.99,4.88-6.49.43-.63.91-1.62,1.44-2.97.53-1.35,1.13-3.39,1.81-6.1.25-1.25.63-2.29,1.16-3.13.53-.83,1.16-1.3,1.9-1.41.74-.1,1.55.21,2.41.94.87.73,1.83,2.03,2.88,3.91,1.12,2.09,1.72,3.76,1.81,5.01.09,1.25-.48,2.97-1.72,5.16ZM266.71,94.7c-.5,1.04-1.19,1.64-2.09,1.8-.9.16-1.78-.18-2.65-1.02-1.67-1.56-3.24-3.08-4.69-4.54-1.46-1.46-3-3.05-4.64-4.77-1.64-1.72-3.47-3.7-5.48-5.95-2.01-2.24-4.41-4.93-7.2-8.06-2.23-2.5-3.47-5.14-3.71-7.9-.25-2.76.43-5.61,2.04-8.53.43-.83.98-1.49,1.63-1.96.65-.47,1.28-.76,1.9-.86.62-.1,1.19-.02,1.72.23.52.26.88.7,1.07,1.33.25.84.5,1.59.74,2.27.25.68.53,1.38.84,2.11.31.73.66,1.56,1.07,2.5.4.94.94,2.03,1.62,3.29,1.05,2.09,2.1,3.99,3.16,5.71,1.05,1.72,2.23,3.5,3.53,5.32,1.3,1.83,2.82,3.78,4.55,5.87,1.73,2.09,3.78,4.44,6.13,7.04.87.94,1.33,1.85,1.39,2.74.06.89-.25,2.01-.93,3.36Z"/><path d="M368.22,35.55c-1.49,6.68-3.87,11.32-7.15,13.93-.87.63-1.66,1.12-2.37,1.49-.71.37-1.59.44-2.65.23-1.05-.21-2.42-.7-4.09-1.49-1.67-.78-3.84-1.96-6.5-3.52-1.3-.73-2.49-1.35-3.58-1.88-1.08-.52-2.21-.94-3.39-1.25-1.18-.31-2.46-.57-3.85-.78-1.39-.21-3.08-.42-5.06-.63-.68-.1-1.12,0-1.3.31s-.28,1.25-.28,2.82c-.12,7.1-.22,14.19-.28,21.28-.06,7.1-.15,13.61-.28,19.56-.12,4.59-.57,7.77-1.35,9.55-.77,1.77-2.15,2.56-4.13,2.35-1.11-.1-2-.89-2.65-2.35-.65-1.46-1.01-4.17-1.07-8.14-.12-5.63-.22-12.15-.28-19.56-.06-7.41-.12-15.34-.19-23.79,0-1.15-.11-1.85-.33-2.11-.22-.26-.73-.39-1.53-.39-4.33,0-8.25.18-11.75.55-3.5.37-6.39.86-8.68,1.49-.81.21-1.56.47-2.28.78-.71.31-1.47.65-2.28,1.02-.81.37-1.69.84-2.65,1.41-.96.57-2.06,1.23-3.3,1.96-1.86,1.15-3.25.97-4.18-.55-.93-1.51-1.24-3.78-.93-6.81.12-1.35.7-2.76,1.72-4.23,1.02-1.46,2.83-3.34,5.43-5.63.62-.52,1.39-.86,2.32-1.02.93-.16,1.83-.02,2.69.39,1.42.63,3.07,1.1,4.92,1.41s3.5.37,4.92.16c1.92-.21,4.05-.42,6.41-.63,2.35-.21,4.92-.42,7.71-.63.74-.1,1.21-.34,1.39-.7.19-.36.28-1.23.28-2.58-.06-2.09-.09-4.35-.09-6.81v-6.96c0-4.38.39-7.35,1.16-8.92.77-1.56,1.96-2.09,3.58-1.56,1.36.42,2.46.94,3.3,1.56s1.45,1.49,1.86,2.58c.4,1.1.65,2.5.74,4.23.09,1.72.11,3.83.05,6.34-.06,1.36-.08,2.87-.05,4.54.03,1.67.01,3.23-.05,4.69-.06,1.46,0,2.4.19,2.82.19.42.62.63,1.3.63h5.43c1.89,0,3.73.1,5.53.31,3.96.21,7.43.37,10.4.47,2.97.1,5.51.16,7.62.16s3.81-.05,5.11-.16c1.3-.1,2.32-.21,3.06-.31.99-.21,1.56.03,1.72.7.15.68.05,1.9-.33,3.68Z"/><path d="M453.95,28.19c-.31,1.56-.62,4.2-.93,7.9-.31,3.7-.6,7.9-.88,12.6s-.53,9.65-.74,14.87c-.22,5.22-.36,10.07-.42,14.55-.12,3.76-.45,6.6-.97,8.53-.53,1.93-1.41,3.47-2.65,4.62-.5.52-1.08.89-1.76,1.1-.68.21-1.35.31-2,.31s-1.24-.1-1.76-.31c-.53-.21-.88-.52-1.07-.94-.5-.94-.91-1.67-1.25-2.19-.34-.52-.73-.94-1.16-1.25-.43-.31-.99-.52-1.67-.63-.68-.1-1.58-.26-2.69-.47-3.04-.52-6.27-.94-9.71-1.25-3.44-.31-6.89-.49-10.36-.55-3.47-.05-6.89,0-10.26.16-3.38.16-6.49.45-9.33.86-.37,0-.62.31-.74.94-.56,1.98-1.39,3.29-2.51,3.91-1.12.63-2.17.57-3.16-.16-.74-.52-1.38-1.33-1.9-2.43-.53-1.1-.96-2.74-1.3-4.93-.34-2.19-.59-5.03-.74-8.53-.16-3.49-.23-7.9-.23-13.22,0-2.61-.03-5.34-.09-8.22-.06-2.87-.17-5.63-.32-8.29-.16-2.66-.33-5.16-.51-7.51-.19-2.35-.37-4.35-.56-6.02-.43-3.54-.74-6.36-.93-8.45-.19-2.09-.2-3.78-.05-5.09.15-1.3.46-2.35.93-3.13.46-.78,1.13-1.59,2-2.43,2.66-2.61,4.67-2.29,6.04.94.12.52.34.78.65.78,3.53,0,7-.1,10.4-.31,3.4-.21,6.19-.36,8.36-.47,2.79-.1,5.18-.16,7.2-.16s3.9.08,5.67.23c1.76.16,3.54.39,5.34.7,1.79.31,3.87.73,6.22,1.25,1.92.42,3.44.7,4.55.86,1.11.16,2.04.18,2.79.08.74-.1,1.36-.36,1.86-.78.5-.42,1.08-1.04,1.76-1.88,1.17-1.35,2.21-1.98,3.11-1.88.9.1,2,.78,3.3,2.03,1.61,1.56,2.58,3.5,2.92,5.79.34,2.3.2,5.11-.42,8.45ZM404.91,25.37c0-.94-.31-1.41-.93-1.41h-4.27c-1.18,0-2.21.03-3.11.08-.9.05-1.72.13-2.46.23-.74.1-1.52.21-2.32.31-.56.21-.83.73-.83,1.56-.12,3.65-.14,8.03-.05,13.14.09,5.11.2,10.07.33,14.87,0,1.25.34,1.77,1.02,1.56,4.7-.83,8.06-3.65,10.08-8.45,2.01-4.8,2.86-12.1,2.55-21.91ZM443.08,62.15c.19-1.88.15-2.92-.09-3.13-.25-.21-.74.37-1.49,1.72-1.42,2.5-2.85,4.36-4.27,5.56-1.42,1.2-3.31,1.59-5.67,1.17-2.54-.42-4.85-1.62-6.92-3.6-2.08-1.98-3.85-4.9-5.34-8.76-1.05-2.71-1.56-6.49-1.53-11.35s.51-10.72,1.44-17.6c.19-1.25-.12-1.88-.93-1.88-.68,0-1.42-.02-2.23-.08-.81-.05-1.61-.08-2.42-.08-.62,0-.93.47-.93,1.41-.12,3.03-.31,6.16-.56,9.39-.25,3.23-.53,5.79-.84,7.67-.68,4.49-1.75,8.06-3.2,10.72-1.46,2.66-2.99,4.88-4.6,6.65-3.53,3.97-7.09,5.63-10.68,5.01-.81-.1-1.15.52-1.02,1.88.12,1.04.19,2.27.19,3.68s.06,2.53.19,3.36c.06.84.4,1.25,1.02,1.25,3.53-.31,7.44-.55,11.75-.7,4.3-.16,8.48-.18,12.54-.08,4.05.1,7.75.26,11.1.47,3.34.21,5.82.47,7.43.78,1.79.31,3.17.16,4.13-.47.96-.63,1.62-1.93,2-3.91.12-.63.26-1.85.42-3.68.15-1.82.32-3.62.51-5.4ZM444.38,35.55c0-3.65-.22-6.13-.65-7.43-.43-1.3-1.52-2.22-3.25-2.74-.37-.1-.76-.21-1.16-.31-.4-.1-1.02-.18-1.86-.23-.84-.05-2-.1-3.48-.16-1.49-.05-3.47-.13-5.94-.23-.25,0-.5.21-.74.63-1.24,3.03-2.04,6.18-2.41,9.47-.37,3.29-.37,6.29,0,9,.31,2.19,1.22,4.2,2.74,6.02,1.52,1.83,3.64,2.84,6.36,3.05,2.17.21,3.87-.16,5.11-1.1,1.24-.94,2.48-2.61,3.71-5.01.5-1.04.88-2.32,1.16-3.83.28-1.51.42-3.89.42-7.12Z"/><path d="M515.89,77.33c-1.67,1.25-3.84,2.53-6.5,3.83-2.66,1.31-5.71,2.58-9.15,3.83s-7.18,2.43-11.24,3.52c-4.06,1.1-8.31,2.06-12.77,2.9-2.17.42-3.71.39-4.64-.08-.93-.47-1.61-1.28-2.04-2.43-.31-.83-.56-1.82-.74-2.97-.19-1.15-.22-2.4-.09-3.76.19-2.5,1.39-3.76,3.62-3.76,2.6-.1,5.43-.29,8.5-.55,3.06-.26,6.24-.65,9.52-1.17.62-.1.93-.63.93-1.56.06-3.65.06-7.56,0-11.74,0-.52-.11-.88-.33-1.1-.22-.21-.67-.26-1.35-.16-2.35.21-4.4.52-6.13.94-1.73.42-2.97.89-3.71,1.41-1.49,1.04-2.77,1.44-3.85,1.17-1.08-.26-1.72-1.02-1.9-2.27-.19-1.35-.12-2.58.19-3.68.31-1.1.99-2.32,2.04-3.68,1.61-1.98,3.13-2.66,4.55-2.03.5.21,1.31.34,2.46.39,1.15.05,2.31.03,3.48-.08.43-.1.94-.16,1.53-.16s1.22-.05,1.9-.16c.43,0,.71-.52.84-1.56.12-1.46.33-2.69.6-3.68.28-.99.82-1.85,1.62-2.58.87-.73,1.92-1.02,3.16-.86,1.24.16,2.2.81,2.88,1.96.25.42.43.97.56,1.64.12.68.22,1.75.28,3.21,0,1.15.37,1.72,1.12,1.72,1.36-.1,2.75-.16,4.18-.16h4.27c1.11,0,1.98.26,2.6.78.62.52.9,1.15.84,1.88-.12,3.13-1.46,4.8-3.99,5.01-1.18.1-2.46.18-3.85.23-1.39.05-2.8.13-4.23.23-.43,0-.73.08-.88.23-.16.16-.23.65-.23,1.49-.06,1.36-.11,2.87-.14,4.54-.03,1.67-.05,3.44-.05,5.32,0,1.36.37,1.98,1.11,1.88,2.54-.52,4.94-.96,7.2-1.33,2.26-.36,4.41-.81,6.45-1.33,1.55-.31,2.48.18,2.79,1.49.31,1.31-.16,2.37-1.39,3.21ZM516.45,38.21c.12,1.46-.16,2.56-.84,3.29-.68.73-1.73,1.1-3.16,1.1-1.11,0-2.55.03-4.32.08-1.76.05-3.64.13-5.62.23-1.98.1-4.03.18-6.13.23-2.11.05-4.06.08-5.85.08-3.41,0-6.3.23-8.68.7-2.38.47-4.07.97-5.06,1.49-1.42.84-2.62,1.28-3.58,1.33-.96.05-1.56-.34-1.81-1.17-.37-1.15-.45-2.35-.23-3.6.22-1.25.91-2.61,2.09-4.07,1.61-1.98,3.13-2.66,4.55-2.03.5.21,1.31.34,2.46.39,1.15.05,2.31.03,3.48-.08.56-.1,1.45-.18,2.69-.23,1.24-.05,2.66-.08,4.27-.08.5,0,.82-.13.98-.39.15-.26.23-.91.23-1.96v-7.67c0-.52-.08-.86-.23-1.02-.16-.16-.48-.23-.98-.23-2.35.21-4.33.47-5.94.78-1.61.31-2.79.73-3.53,1.25-2.85,1.98-4.58,1.93-5.2-.16-.99-3.13-.56-5.79,1.3-7.98,1.61-1.98,3.13-2.66,4.55-2.03.5.21,1.32.34,2.46.39,1.14.05,2.31.03,3.48-.08.43-.1.9-.16,1.39-.16h1.76c.31,0,.53-.16.65-.47.12-.31.19-.94.19-1.88,0-1.25-.02-2.56-.05-3.91-.03-1.35-.08-2.76-.14-4.23-.06-1.56.19-2.95.74-4.15.56-1.2,1.24-1.85,2.04-1.96,1.42-.1,2.58.13,3.48.7.9.57,1.78,1.59,2.65,3.05.5.84.8,1.98.93,3.44.12,1.46.03,3.81-.28,7.04-.12.84-.12,1.36,0,1.56.12.21.43.31.93.31h6.96c2.1,0,3.25.89,3.44,2.66.12,1.46-.08,2.56-.6,3.29-.53.73-1.53,1.2-3.02,1.41-.99.11-2.12.21-3.39.31-1.27.11-2.59.21-3.95.31-.74,0-1.11.52-1.11,1.56-.06,1.36-.09,2.69-.09,3.99v4.15c0,.84.08,1.36.23,1.56.15.21.45.31.88.31,1.98-.1,3.96-.16,5.94-.16h5.57c2.1,0,3.25.89,3.44,2.66ZM550.44,55.26c1.05.63,1.81,1.38,2.28,2.27.46.89.67,1.72.6,2.5-.06.78-.39,1.41-.98,1.88-.59.47-1.41.55-2.46.23-1.3-.31-2.77-.81-4.41-1.49-1.64-.68-3.34-1.43-5.11-2.27-1.76-.83-3.56-1.77-5.39-2.82-1.83-1.04-3.58-2.14-5.25-3.29-.81-.52-1.32-.65-1.53-.39-.22.26-.33,1.02-.33,2.27,0,6.26.05,12.39.14,18.39.09,6,.23,11.24.42,15.73.06,1.46.05,2.71-.05,3.76-.09,1.04-.36,1.96-.79,2.74-.43.78-1.04,1.49-1.81,2.11-.78.63-1.81,1.15-3.11,1.56-1.61.63-2.71.34-3.3-.86-.59-1.2-.82-3.47-.7-6.81.19-4.38.34-9.23.46-14.55.12-5.32.2-11.19.23-17.6.03-6.42.05-13.48.05-21.2s-.06-16.22-.19-25.51c0-2.19.05-3.94.14-5.24.09-1.3.29-2.32.6-3.05.31-.73.73-1.2,1.25-1.41.53-.21,1.22-.26,2.09-.16,2.17.21,3.73,1.23,4.69,3.05.96,1.83,1.22,4.77.79,8.84-.12,1.67-.26,4.12-.42,7.35-.16,3.23-.29,6.99-.42,11.27-.06,1.98.06,3.34.37,4.07.31.73.93,1.62,1.86,2.66,1.3,1.36,2.79,2.79,4.46,4.3,1.67,1.51,3.4,2.97,5.2,4.38,1.79,1.41,3.61,2.74,5.43,3.99s3.54,2.35,5.15,3.29Z"/></g></svg>