<?xml version="1.0" encoding="UTF-8"?>
<svg id="Layer_1" xmlns="http://www.w3.org/2000/svg" xmlns:xlink="http://www.w3.org/1999/xlink" xmlns:ns0="http://www.w3.org/2000/svg" version="1.1" viewBox="0 0 32 32">
  <!-- Generator: Adobe Illustrator 29.5.1, SVG Export Plug-In . SVG Version: 2.1.0 Build 141)  -->
  <defs>
    <style>
      .st0 {
        fill: none;
      }

      .st1 {
        fill: #4285f4;
      }

      .st2 {
        fill: #e94235;
      }

      .st3 {
        fill: #34a853;
      }

      .st4 {
        fill: #fbbc04;
      }

      .st5 {
        clip-path: url(#clippath);
      }
    </style>
    <clipPath id="clippath">
      <rect class="st0" x=".2" y="0" width="31.8" height="31.8"/>
    </clipPath>
  </defs>
  <g class="st5">
    <g>
      <path class="st1" d="M31.4,16.2c0-1.1-.1-2.2-.3-3.3h-15v6.2h8.6c-.4,2-1.5,3.7-3.2,4.8v4h5.1c3-2.8,4.7-6.8,4.7-11.7Z"/>
      <path class="st3" d="M16.1,31.8c4.3,0,7.9-1.4,10.5-3.9l-5.1-4c-1.4,1-3.2,1.5-5.4,1.5-4.1,0-7.6-2.8-8.9-6.6H1.9v4.1c2.6,5.2,8,8.8,14.2,8.8Z"/>
      <path class="st4" d="M7.2,18.9c-.3-1-.5-2-.5-3s.2-2.1.5-3v-4.1H1.9C.9,10.9.2,13.3.2,15.9s.6,5,1.7,7.1l5.3-4.1Z"/>
      <path class="st2" d="M16.1,6.3c2.3,0,4.4.8,6.1,2.4l4.6-4.6C24,1.6,20.4,0,16.1,0,9.9,0,4.5,3.5,1.9,8.7l5.3,4.1c1.3-3.8,4.8-6.6,8.9-6.6Z"/>
    </g>
  </g>
</svg>