<?xml version="1.0" encoding="UTF-8"?><svg xmlns="http://www.w3.org/2000/svg" viewBox="0 0 202 216"><g id="Yang"><g id="_1"><rect x="1" y="196" width="200" height="20" fill="#231815"/></g><g id="_3"><rect x="1" y="117.6" width="200" height="20" fill="#231815"/></g><g id="_4"><rect x="1" y="78.4" width="200" height="20" fill="#231815"/></g><g id="_6"><rect x="1" width="200" height="20" fill="#231815"/></g></g><g id="Ying"><g id="_1-2"><rect x="1" y="196" width="90" height="20" fill="#231815"/><rect x="111" y="196" width="90" height="20" fill="#231815"/></g><g id="_2"><rect x="1" y="156.8" width="90" height="20" fill="#231815"/><rect x="111" y="156.8" width="90" height="20" fill="#231815"/></g><g id="_3-2"><rect x="1" y="117.6" width="90" height="20" fill="#231815"/><rect x="111" y="117.6" width="90" height="20" fill="#231815"/></g><g id="_4-2"><rect x="1" y="78.4" width="90" height="20" fill="#231815"/><rect x="111" y="78.4" width="90" height="20" fill="#231815"/></g><g id="_5"><rect x="1" y="39.2" width="90" height="20" fill="#231815"/><rect x="111" y="39.2" width="90" height="20" fill="#231815"/></g><g id="_6-2"><rect x="1" width="90" height="20" fill="#231815"/><rect x="111" width="90" height="20" fill="#231815"/></g></g></svg>