<?xml version="1.0" encoding="UTF-8"?><svg id="Layer_2" xmlns="http://www.w3.org/2000/svg" viewBox="0 0 48.69 55.96"><g id="Layer_1-2"><g id="_1"><path d="M44.44,8.56c-.2.4-.5.7-1,.9s-1.1.4-1.8.4h-4.5c-1.5,0-3.2,0-5.1.2-.5,0-.9.1-1,.2-.2,0-.4.2-.6.5-.6.8-1.4,1.5-2.2,2.1-.8.6-1.8,1.2-3,1.9-.2,0-.4.1-.7.2s-.5,0-.8,0c-.2,0-.4,0-.4.1s-.2.5-.2,1.1c0,.7-.1,1.4-.1,2.1s0,1.3-.1,2c-.2,1.6-.5,2.7-1,3-.4.3-.7.5-1,.5s-.7,0-1.2-.2h-2.9c-.3,0-.6,0-.7.2-.1.1-.2.5-.2,1.1s0,.9.1,1.1c.1.2.4.2.7.2,1.2,0,2.3,0,3.4.1,1,0,2,.1,2.8.2.7,0,1.1.3,1.4.6.2.4.2.8,0,1.2-.2.6-.5,1-.7,1.1-.2.2-.6.3-1.1.2h-5.6c-.8,0-.6,0-.8.2-.1.1-.2.5-.2,1.1v4.9c0,.8-.3,1.5-.8,2s-1.3.6-2.5.3c-.4-.1-.8-.3-1-.4-.3-.1-.5-.4-.6-.6s-.2-.6-.3-1.1v-1.7c0-.7.1-1.2.1-1.6s0-1,.1-1.7c0-.6,0-.9-.1-1.1-.1-.2-.3-.2-.6-.2h-2.8c-.9,0-1.8.1-2.7.2-.3,0-.7,0-1.1.2-.4,0-.9.2-1.5.5-.5.2-.9.3-1.3.2-.3,0-.6-.2-.7-.5-.1-.2-.2-.6-.1-.9s.2-.7.4-1.1c.8-1.3,1.5-2.1,2.3-2.4.7-.2,1.2-.2,1.4,0,.3.3.7.4,1.3.4h4.9c.8,0,.6,0,.7-.2s.2-.6.3-1.2c0-.5,0-.9-.2-1s-.5-.2-1-.2c-.9,0-1.5.1-2.1.4-.3.1-.5.2-.7.2s-.4,0-.6-.1c-.3-.2-.6-.5-.8-.7-.2-.2-.4-.4-.5-.7s-.2-.6-.2-.9v-5c0-1.3-.1-2.4-.2-3.4v-2.1c0-.3.3-.6.5-.7.3-.2.6-.3,1.1-.3h1.1c.5.2.9.3,1.3.4s.9,0,1.6,0c.5,0,.8-.1,1-.3s.3-.5.3-.9,0-.8-.2-.9-.5-.2-1-.2h-2.4c-.4,0-.7.1-1.1.2-.4,0-.8.2-1.1.3s-.6.2-.8.3c-.8.4-1.4.5-1.8.5s-.7-.2-.9-.5c-.2-.3-.2-.6,0-1.1,0-.4.3-.8.6-1.1,1-1.1,1.7-1.7,2.2-2,.5-.2.9-.3,1.2-.2.3,0,.6.1.8.2h3.3c.5,0,.8-.1,1-.3s.2-.8.2-1.8c0-1.4.3-2.2.8-2.6.5-.4,1.1-.4,1.8-.3.9.2,1.5.6,1.9,1.1.4.6.6,1.3.6,2.3,0,.6,0,1,.1,1.1s.5.2,1,.3h2c.6,0,1.3,0,2,.1.6,0,1,.2,1.4.5.3.3.5.7.4,1.2-.2,1-.9,1.5-2.2,1.5h-4q-.6,0-.8.2c-.1.2-.3.5-.3.9,0,.5,0,.8.1.9.1.2.6.2,1.3.2s1.5-.1,2-.3c.4-.2.9-.3,1.4-.2.5,0,1.1.4,1.6.9.5.4.9.9,1.1,1.3.1.3.2.5.3.5s.2,0,.4-.2c.6-.7,1.3-1.4,1.8-2.3s1.1-1.8,1.5-2.7.8-1.8,1-2.6.4-1.6.5-2.2c0-.6.2-1.1.4-1.5s.6-.6.9-.7.7-.2,1.1,0c.4,0,.8.3,1.2.6,1.5,1.2,1.8,2.6,1,4.3-.3.5-.4.9-.3,1,0,.1.3.2.7.2h4.2c1.3,0,2.7,0,4.3.1.8,0,1.4.2,1.7.7s.3,1,0,1.5h0l-.4-.2ZM18.74,14.06c0-.9-.4-1.3-1.1-1.3h-7.2c-.6,0-.9.1-1,.3s-.2.4-.2.9,0,.9.2,1c.1.1.5.2,1,.2h3.9c1.2,0,2.2.1,3.2.2.5,0,.9,0,1-.2s.2-.6.2-1.1h0ZM18.34,19.66c0-.7,0-1.2-.1-1.4s-.4-.3-.8-.4c-1.2,0-2.4-.1-3.5-.2h-3.4c-.6,0-1,0-1.1.3s-.2.6-.2,1.3,0,1.1.2,1.3c.1.1.4.2.8.2h6.9c.5,0,.8,0,1-.3.1-.2.2-.5.3-.8h-.1ZM48.44,31.06c-.3.8-.8,1.7-1.5,2.6-.7,1-1.8,2-3,3.1-1,.9-2.2,1.4-3.5,1.5-1.3,0-2.8-.2-4.4-.7-2-.7-3.6-1.4-5-2.1-1.4-.7-2.5-1.4-3.4-2.1-.5-.4-1-.9-1.3-1.4-.4-.5-.6-1.1-.7-1.8,0-.6,0-1.3.3-2.1.3-.7.7-1.5,1.5-2.4.7-.8,1.3-1.5,1.8-2.1s.9-1.1,1.3-1.5.7-.8,1-1.2c.3-.4.6-.7.8-1.1.3-.5.5-.9.4-1.3,0-.4-.5-.6-1.1-.6h-1.2c-.5,0-.9.1-1.3.2s-.8.2-1.1.4c-.3.1-.6.3-.8.4-.6.5-1.1.7-1.6.7s-.7-.1-1-.4c-.2-.3-.3-.6-.3-1.1,0-.4.2-.9.4-1.3.9-1.4,1.5-2.3,1.9-2.6s.7-.4,1.1-.2,1,.3,1.7.2c.8,0,1.6-.1,2.3-.1h3.4c.3,0,.5-.1.6-.2.8-.4,1.8,0,3,1.2.6.7.9,1.5.7,2.3-.1.9-.6,1.5-1.4,1.8-.4.2-.8.5-1.4.9s-1,.8-1.3,1.1c-.5.5-1.1,1.3-1.8,2.2s-1.5,1.8-2.1,2.7c-.5.6-.7,1.2-.6,1.9,0,.7.5,1.3,1.2,1.9.3.3,1,.6,2.1.8s2.3.4,3.6.4c1.8,0,3.5,0,5.2-.4s3.3-.9,4.8-1.5c.3-.2.6-.1.8,0,.2.2.2.7,0,1.3h0l-.1.6Z"/><path d="M10.84,44.86c-.5,2.2-1,5.5-.4,8,.2-.6.5-1.6.8-2.3l.6.3c-.3,1-.8,2.5-1,3.2v1.1h-.9c-.3-.8-.8-2.7-.8-4.5s.4-4.6.6-5.9v-.9h1.2c0,.4-.2.8-.2,1h.1ZM18.44,44.56v2.3c.9,0,1.7-.2,2.4-.4v1.1c-.7.1-1.5.2-2.4.3v.5c0,3.4,0,5.8-3.1,7.6l-1-.8c.4-.2,1-.5,1.4-.9,1.7-1.4,1.7-3.1,1.7-6v-.4h-1.9c-.6,0-1.8,0-2.4-.1v-1c.6.1,1.6.2,2.4.2h1.9v-2.3c0-.3,0-.6-.1-.9h1.2v.8h-.1Z"/><path d="M33.84,44.96c-.7,1-2.1,3.6-2.8,5,.7-.7,1.5-1,2.3-1s1.7.6,1.7,1.8v2.8c0,.8.6,1.1,1.2,1.1,1.7,0,2.7-2.1,3.1-3.6l.9.7c-.8,2.3-2,4-4.1,4s-2-1-2.1-1.8v-2.8c0-.7-.4-1.1-1.1-1.1-1.2,0-2.4,1.2-3,2.4-.5.9-1.1,2.6-1.3,3.4l-1.1-.4c1.1-3,4.3-9,5.1-10.4.2-.3.3-.7.5-1.1l1.2.5c-.1.2-.3.4-.5.7h0v-.2Z"/></g></g></svg>