<?xml version="1.0" encoding="UTF-8"?><svg id="Layer_2" xmlns="http://www.w3.org/2000/svg" viewBox="0 0 47.55 56.02"><g id="_2"><path d="M29.34,10.1c.65.08,1.1.12,1.36.12s.47-.06.64-.19c.34-.29.73-.49,1.15-.59.43-.1.85-.12,1.28-.06s.83.21,1.21.43c.38.23.67.55.87.96.38.7.58,1.34.62,1.92.03.58-.05,1.16-.26,1.74-.1.25-.27.91-.49,1.98-.22,1.08-.47,2.27-.74,3.6-.17.87-.43,1.6-.77,2.2-.34.6-.71,1.05-1.1,1.36s-.8.46-1.23.43c-.43-.02-.8-.2-1.1-.53-.51-.5-.91-.74-1.18-.74h-.82c-.34,0-.53.21-.56.62-.1,1.12-.02,2.13.26,3.04.27.91.8,1.69,1.59,2.33.79.64,1.86,1.12,3.23,1.43s3.1.4,5.18.28c1.85-.08,3.47-.34,4.88-.77,1.4-.43,2.5-.96,3.29-1.58.38-.33.64-.4.8-.22s.13.69-.08,1.52c-.75,2.81-1.9,4.95-3.44,6.42s-3.23,2.24-5.08,2.33c-1.23.08-2.87-.33-4.93-1.24-2.05-.91-4.24-2.23-6.57-3.97-.62-.45-1.15-.94-1.59-1.46-.45-.52-.8-1.14-1.05-1.86-.26-.72-.44-1.57-.54-2.54-.1-.97-.1-2.16,0-3.56.03-.21-.03-.36-.18-.47-.15-.1-.56-.13-1.21-.09-.58.04-.96.1-1.13.19-.17.08-.26.23-.26.43-.07,1.45-.32,2.71-.74,3.78-.43,1.08-.98,2.11-1.67,3.1-.55.87-1.26,1.68-2.13,2.45-.87.77-1.82,1.45-2.85,2.05-1.03.6-2.09,1.11-3.18,1.52-1.1.41-2.14.68-3.13.81-2.29.21-4.08-.07-5.36-.84-1.28-.76-2.05-1.83-2.28-3.19-.07-.5-.06-.81.03-.93.08-.12.35-.16.8-.12,1.75.08,3.53-.02,5.36-.31s3.53-.74,5.11-1.36c2.36-.95,3.94-1.97,4.75-3.07.8-1.09,1.21-2.3,1.21-3.63,0-.41-.19-.62-.56-.62h-.64c-.15,0-.32.02-.49.06-.31.08-.58.23-.82.43-.44.41-.86.68-1.26.81-.39.12-.73.15-1,.06-.38-.12-.77-.53-1.18-1.21s-.67-1.44-.77-2.26c-.21-1.57-.37-2.69-.49-3.35-.12-.66-.25-1.26-.39-1.8-.34-1.2-.45-2.3-.33-3.32.12-1.01.44-1.75.95-2.2.41-.41.8-.66,1.15-.74.36-.08.76-.04,1.21.12.34.12.56.25.67.37.17.21.48.29.92.25,1.68-.21,3.04-.35,4.11-.43,1.06-.08,1.93-.12,2.62-.12,2.22-.04,3.98-.04,5.26,0s2.32.12,3.11.25l-.04-.02h0ZM20,2.91c-.07.83-.19,1.43-.36,1.8-.17.37-.45.7-.82.99-.31.21-.62.4-.92.59-.31.19-.74.39-1.31.62-.56.23-1.33.52-2.31.87-.98.35-2.27.82-3.88,1.4-.62.21-1.29.38-2.03.53s-1.74.3-3,.47c-.69.08-1.17.06-1.46-.06s-.52-.41-.69-.87c-.34-.83.21-1.45,1.64-1.86,1.03-.33,2.06-.72,3.11-1.18,1.04-.45,2.03-.92,2.95-1.4.92-.47,1.75-.96,2.46-1.46.72-.5,1.27-.93,1.64-1.3.92-.99,1.64-1.6,2.16-1.83.51-.23,1.06-.2,1.64.09.89.46,1.28,1.32,1.18,2.6ZM31.04,15.93c.14-1.12.09-1.84-.13-2.17-.22-.33-.9-.56-2.03-.68-.51-.04-1.27-.06-2.28-.06s-2.14.03-3.39.09-2.58.15-3.98.25-2.75.24-4.06.4c-.31.04-.46.25-.46.62.03.62.07,1.24.1,1.86s.1,1.34.21,2.17c.03.37.27.56.72.56,1.71.08,3.3.15,4.77.19,1.47.04,2.76.06,3.88.06s2.02,0,2.72-.03c.7-.02,1.14-.05,1.31-.09,1.03-.16,1.7-.43,2.03-.81.32-.37.52-1.16.59-2.36ZM43.2,9.17c-.07.5-.24.84-.51,1.02-.27.19-.82.2-1.64.03-2.84-.58-5.41-1.4-7.7-2.48-1.1-.54-1.93-.95-2.52-1.24-.58-.29-1.06-.5-1.44-.62-.89-.33-1.51-.7-1.85-1.12-.34-.41-.53-.91-.56-1.49-.07-1.16.38-2.07,1.33-2.73,1.03-.74,1.93-.72,2.72.06.27.29.68.63,1.21,1.02s1.26.88,2.18,1.46c1.33.83,2.66,1.59,3.98,2.29s2.57,1.39,3.77,2.05c.41.21.69.46.85.77.15.31.21.63.18.96v.02h0Z"/><path d="M22.03,45.12c-.07.34-.15.75-.24,1.19.97-.12,1.99-.31,2.9-.54v1.04c-.99.21-2.06.38-3.1.5-.15.65-.31,1.32-.49,1.97-.53,2.1-1.52,5.15-2.28,6.74l-1.16-.4c.9-1.53,1.91-4.5,2.46-6.58.13-.5.28-1.07.41-1.65-.51.04-1,.06-1.44.06-.63,0-1.15-.01-1.69-.06l-.03-1.02c.68.09,1.22.1,1.75.1.5,0,1.04-.03,1.62-.07.12-.56.21-1.06.25-1.37.04-.38.07-.87.04-1.16l1.25.1c-.09.31-.19.85-.25,1.13v.02h0ZM23.76,53.37c0,.69.4,1.41,2.57,1.41.96,0,1.97-.12,2.85-.29l-.04,1.06c-.79.12-1.77.22-2.82.22-2.28,0-3.54-.69-3.54-2.15,0-.54.09-1.06.22-1.69l.99.1c-.13.49-.22.94-.22,1.34h0ZM26.43,48.36c.87,0,1.77.03,2.54.12l-.03,1c-.76-.1-1.62-.18-2.47-.18-.91,0-1.81.06-2.71.16v-.99c.77-.07,1.72-.12,2.66-.12h0ZM28.59,46.47l-.72.32c-.29-.59-.81-1.49-1.21-2.04l.71-.31c.38.53.91,1.41,1.22,2.03ZM30.22,45.87l-.72.34c-.32-.66-.81-1.49-1.24-2.04l.71-.31c.4.54.97,1.46,1.25,2.02h0Z"/></g></svg>