<?xml version="1.0" encoding="UTF-8"?><svg id="Layer_2" xmlns="http://www.w3.org/2000/svg" viewBox="0 0 49.64 56.43"><g id="_3"><path d="M7.89,25.47c-.27.08-.41.54-.41,1.36,0,1.7-.05,3.14-.15,4.34-.1,1.2-.26,2.21-.46,3.04-.21.83-.48,1.51-.82,2.05-.34.54-.75.99-1.23,1.36s-.96.6-1.44.68-.93.04-1.36-.12c-.43-.16-.81-.43-1.15-.81-.34-.37-.6-.81-.77-1.3-.24-.95-.05-1.59.56-1.92,1.3-.58,2.22-1.36,2.75-2.36.53-.99.74-2.42.64-4.28,0-.5-.19-.64-.56-.43-.79.33-1.39.43-1.82.31-.43-.12-.61-.47-.54-1.05.07-.78.26-1.42.56-1.89.31-.47.84-.86,1.59-1.15.24-.12.36-.31.36-.56.03-.62.26-1.07.67-1.36.48-.41.99-.53,1.54-.34s.91.61,1.08,1.27c.1.37.21.56.31.56.89-.16,1.7-.29,2.44-.37s1.46-.16,2.18-.25c.27-.04.45-.12.54-.25.08-.12.13-.37.13-.74,0-.45-.04-.82-.13-1.09-.09-.27-.28-.38-.59-.34-1.06.08-1.88.21-2.46.37-.58.17-1.2.37-1.85.62-.58.21-1.15.21-1.69,0-.55-.21-.87-.7-.98-1.49-.14-.99-.05-1.9.26-2.73.24-.54.4-1.2.49-1.98.08-.78.13-1.49.13-2.11,0-.5.12-.89.36-1.18s.53-.43.87-.43c.41,0,.75.35,1.03,1.05.27.7.34,1.51.21,2.42-.17,1.2-.14,2.07.1,2.6.24.54.58.79,1.03.74,1.16-.12,2.17-.22,3.03-.28.85-.06,1.67-.09,2.44-.09s1.58.04,2.44.12c.85.08,1.88.21,3.08.37.24.04.42,0,.54-.09.12-.1.21-.38.28-.84.14-.83.22-1.65.26-2.48.03-.83.05-1.69.05-2.6,0-.54.1-.91.31-1.12s.56-.23,1.08-.06c.38.12.63.37.77.74.14.37.24,1.03.31,1.98.03.66.08,1.25.15,1.77.07.52.19,1.19.36,2.02.27,1.12.23,2.01-.13,2.67s-.85,1.05-1.46,1.18c-.62.12-1.11.02-1.49-.31-.34-.29-.65-.43-.92-.43-1.13-.04-2.16-.1-3.08-.19-.24-.04-.41.04-.51.25-.1.21-.21.5-.31.87-.17.66-.03,1.01.41,1.05.48.08,1.03.19,1.67.31.63.12,1.44.33,2.44.62.68.21,1.32-.02,1.9-.68.27-.29.62-.4,1.03-.34s.77.34,1.08.84c.51.83.65,2.07.41,3.72-.07.5-.12,1.26-.15,2.29s.02,1.92.15,2.67c.14,1.08.22,1.95.26,2.63.03.68,0,1.25-.13,1.71-.12.46-.33.82-.64,1.08-.31.27-.74.53-1.28.77-.69.33-1.16.33-1.44,0-.27-.33-.41-1.22-.41-2.67v-7.87c0-1.07-.41-1.71-1.23-1.92-.72-.16-1.44-.29-2.16-.37s-1.52-.12-2.41-.12c-.21,0-.37.05-.49.16-.12.1-.27.32-.44.65-.17.25-.45.71-.82,1.4-.38.68-.7,1.29-.98,1.83-.07.08-.09.19-.05.31.03.12.19.29.46.5.38.29.74.44,1.08.47.34.02.8-.13,1.39-.47.21-.12.34-.29.41-.5s0-.45-.21-.74c-.62-.83-.77-1.61-.46-2.36.38-.83.85-.99,1.44-.5.82.66,1.57,1.39,2.23,2.17.67.79,1.22,1.53,1.67,2.23.38.62.48,1.21.31,1.77s-.46.8-.87.71c-.38-.12-.91-.41-1.59-.87-.24-.21-.43-.31-.56-.31s-.34.1-.62.31c-.96.62-1.77,1.08-2.44,1.4-.67.31-1.23.5-1.69.56s-.86.01-1.18-.15c-.33-.16-.61-.41-.85-.74s-.55-.58-.92-.74c-.38-.16-.7-.23-.98-.19-.96.08-1.59.03-1.9-.15-.31-.19-.38-.61-.21-1.27.17-.62.35-1.03.54-1.24.19-.21.45-.31.8-.31.44,0,.77-.14.98-.43.34-.54.65-1.02.92-1.46.27-.43.46-.77.56-1.02.27-.58.17-.87-.31-.87-.65.04-1.25.09-1.8.16-.55.06-1.04.15-1.49.28l-.05-.03h0ZM22.11,7.61c-.38-.08-.83-.13-1.36-.16-.53-.02-.97-.03-1.31-.03-.31,0-.43.1-.36.31.17.58.21,1.08.13,1.52-.09.43-.27.9-.54,1.4-.14.29-.48.7-1.03,1.24-.34.29-.31.6.1.93.41.33.8.68,1.18,1.05.38.37.75.72,1.13,1.05.41.41.44,1.01.1,1.8-.24.5-.63.6-1.18.31-.58-.37-1.19-.76-1.82-1.18-.63-.41-1.21-.78-1.72-1.12-.24-.16-.43-.24-.56-.22-.14.02-.34.13-.62.34-.79.7-1.45,1.25-1.98,1.64s-.93.63-1.21.71c-.92.46-1.56.19-1.9-.81-.34-.66-.1-1.2.72-1.61.31-.16.63-.35.98-.56.34-.21.68-.45,1.03-.74.31-.25.45-.43.44-.56-.02-.12-.18-.29-.49-.5-.38-.29-.69-.51-.95-.65s-.49-.26-.69-.34c-1.03-.54-1.15-1.22-.36-2.05.41-.45.56-.88.46-1.27-.1-.39-.31-.57-.62-.53-.92.08-1.85.26-2.77.53s-1.73.57-2.41.9c-.99.54-1.75.72-2.28.56s-.76-.58-.69-1.24c.14-1.49.75-2.67,1.85-3.53.68-.58,1.35-.68,2-.31.31.17.79.29,1.44.37.65.08,1.33.04,2.05-.12.48-.08,1.02-.15,1.62-.22.6-.06,1.21-.11,1.82-.16.58,0,.79-.47.62-1.43-.24-.87-.1-1.67.41-2.42.38-.54,1.08-.58,2.1-.12.62.21,1.1.4,1.46.59s.63.38.82.59c.19.21.31.46.36.74.05.29.08.64.08,1.05,0,.33.03.55.1.65.07.1.21.15.41.15,1.33,0,2.4,0,3.21.03.8.02,1.44.06,1.9.12s.78.15.95.25.29.24.36.4c.38.7.3,1.35-.23,1.95-.53.6-1.45.82-2.75.65v.05h0ZM16.21,8.97c.34-.29.45-.66.33-1.12-.12-.45-.32-.68-.59-.68-1.1,0-2.28.06-3.54.19-.31.04-.51.24-.59.59-.09.35.04.67.38.96.79.66,1.52,1.16,2.21,1.49.41.21.72.1.92-.31.14-.21.27-.4.41-.59s.29-.36.46-.53h0ZM24.98,7.24c.99-.41,2.16-1.13,3.52-2.14,1.35-1.01,2.81-2.45,4.39-4.31.96-1.12,1.57-1.05,1.85.19.14.66.41,1.1.82,1.3.38.17.78.29,1.21.37.43.08.95.12,1.57.12.75,0,1.3.15,1.64.46.34.31.63.92.87,1.83.17.46.18.94.03,1.46s-.42.94-.8,1.27c-.34.37-.53.58-.56.62-.14.21-.17.38-.1.53.07.15.21.22.41.22.79,0,1.53,0,2.23-.03.7-.02,1.38-.05,2.03-.09.44,0,.74.09.9.28.15.19.25.57.28,1.15.03.58-.03.96-.21,1.15-.17.19-.39.28-.67.28-.72.08-1.44.13-2.16.16-.72.02-1.52.05-2.41.09-.31,0-.51.1-.59.31-.09.21-.15.72-.18,1.55-.03.87,0,1.46.13,1.77.12.31.33.47.64.47h1.57c.5,0,.98.02,1.46.06.48.04.79.16.92.34.14.19.21.57.21,1.15,0,.33-.19.66-.56.99-.38.33-.89.5-1.54.5-.31,0-.65,0-1.03-.03-.38-.02-.7-.03-.98-.03-.34,0-.57.1-.69.31-.12.21-.16.72-.13,1.55,0,.58.06.95.18,1.12s.4.25.85.25h2.1c.96.04,1.57.16,1.82.34.26.19.39.51.39.96,0,.5-.15.94-.46,1.33-.31.39-.75.59-1.33.59h-1.33c-.41,0-.82.02-1.23.06-.38.04-.62.19-.72.43-.1.25-.15.7-.15,1.36,0,.83.07,1.35.21,1.58s.41.34.82.34h4.67c1.57,0,2.96.02,4.16.06.31,0,.5.07.56.22.07.15.07.49,0,1.02-.24,1.12-.57,2.03-1,2.73s-.88,1.22-1.36,1.55c-.38.33-.99.43-1.85.31s-2.19-.6-4-1.43c-.62-.25-1.33-.45-2.16-.62-.82-.16-1.69-.28-2.59-.34-.91-.06-1.81-.07-2.72-.03s-1.74.15-2.49.31c-.31.08-.51.23-.62.43-.1.21-.19.66-.26,1.36-.07,1.32-.3,2.21-.69,2.67-.39.46-1.12.7-2.18.74-.27,0-.5-.07-.67-.22-.17-.14-.3-.4-.38-.78-.09-.37-.12-.9-.1-1.58.02-.68.08-1.58.18-2.7.14-1.49.26-2.99.36-4.5s.19-3.14.26-4.9c.07-1.76.11-3.68.13-5.77.02-2.09,0-4.47-.03-7.16,0-.33-.06-.53-.18-.59s-.38,0-.8.16c-.82.29-1.51.08-2.05-.62-.86-1.16-.65-2,.62-2.54h-.03ZM35.35,15.11c.03-1.12,0-1.86-.08-2.23-.09-.37-.32-.56-.69-.56-.41.04-.86.06-1.33.06h-1.75c-.68,0-.99.72-.92,2.17.07.87.16,1.4.28,1.58.12.19.4.28.85.28.48-.04.98-.06,1.51-.06s1.03-.02,1.51-.06c.24,0,.39-.07.46-.22.07-.14.12-.46.15-.96h.01ZM35.86,6.06c-.1-.99-.58-1.61-1.44-1.86-.31-.12-.75.04-1.33.5-.27.25-.55.5-.82.74-.27.25-.58.52-.92.81-.21.17-.37.37-.49.62-.12.25-.18.6-.18,1.05,0,.58.05.94.15,1.08.1.15.31.22.62.22.92-.04,1.8-.04,2.62,0,.48,0,.81-.07,1-.22.19-.14.35-.38.49-.71.24-.66.34-1.4.31-2.23h0ZM35.4,21.37c0-.99-.06-1.6-.18-1.83s-.35-.34-.69-.34c-.51.04-1.04.07-1.59.09-.55.02-1.08.07-1.59.15-.24.04-.41.16-.51.34s-.14.67-.1,1.46c0,.7.07,1.14.21,1.3.14.17.44.23.92.19.41,0,.86,0,1.36-.03.5-.02.95-.05,1.36-.09.31,0,.51-.08.62-.25.1-.16.17-.5.21-.99h-.02ZM35.4,27.82c-.03-.91-.1-1.49-.21-1.74s-.27-.37-.51-.37c-.48,0-.98,0-1.51.03s-1.04.07-1.51.16c-.38.04-.62.15-.72.34s-.15.61-.15,1.27c.03.95.1,1.55.21,1.8.1.25.34.37.72.37.48-.04.98-.06,1.51-.06s1-.02,1.41-.06c.27,0,.47-.1.59-.31.12-.21.18-.68.18-1.43h-.01Z"/><path d="M22.09,48.45c.59-1.59,2.16-3.53,4.07-3.53s3.29,1.96,3.29,5.02c0,4.07-2.57,5.84-6.16,6.49l-.62-.94c3.18-.47,5.71-1.81,5.71-5.52,0-2.34-.79-4.09-2.4-4.09-1.85,0-3.59,2.68-3.79,4.62-.07.59-.07,1.1.03,1.85l-1.02.07c-.07-.56-.16-1.37-.16-2.32,0-1.4.31-3.62.47-4.75.06-.43.09-.82.12-1.22l1.16.03c-.34,1.15-.62,3.22-.71,4.29h0Z"/></g></svg>