<?xml version="1.0" encoding="UTF-8"?><svg id="Layer_2" xmlns="http://www.w3.org/2000/svg" viewBox="0 0 49.85 54.17"><g id="_4"><path d="M49.72,31.32c-.31.62-.6,1.16-.87,1.61-.27.46-.56.86-.85,1.21s-.62.69-1,1.02-.82.68-1.33,1.05c-1.1.83-2.25,1.18-3.46,1.05-1.21-.12-2.54-.64-3.98-1.55-1.95-1.24-3.59-2.3-4.93-3.19-1.33-.89-2.48-1.62-3.44-2.2-.34-.21-.58-.3-.72-.28s-.34.26-.62.71c-1.03,1.65-2.09,2.87-3.18,3.66-1.1.79-2.53,1.34-4.31,1.67-.75.16-1.37.28-1.85.34-.48.06-.89.06-1.23,0s-.64-.21-.9-.43c-.26-.23-.54-.57-.85-1.02-.48-.66-.71-1.35-.69-2.08.02-.72.21-1.5.59-2.33.27-.66.49-1.32.64-1.98.15-.66.21-1.38.18-2.17-.03-.7-.12-1.12-.26-1.24-.14-.12-.43-.16-.87-.12-.34.04-.57.12-.69.25-.12.12-.32.46-.59.99-.07.17-.14.31-.21.43s-.14.25-.21.37c-.99,1.78-2.14,3.18-3.44,4.22-1.3,1.03-2.93,1.84-4.88,2.42-.58.17-1.16.18-1.75.03-.58-.14-1.12-.39-1.62-.74-.5-.35-.94-.81-1.33-1.36-.39-.56-.69-1.15-.9-1.77-.17-.58-.21-.94-.13-1.08s.37-.24.85-.28c.96-.04,1.93-.18,2.93-.4.99-.23,1.94-.55,2.85-.96s1.73-.9,2.46-1.46c.74-.56,1.31-1.19,1.72-1.89s.67-1.51.77-2.42.07-1.78-.1-2.6c-.17-.87-.15-1.67.05-2.42.21-.74.77-1.26,1.69-1.55.55-.16,1.08-.04,1.59.37.27.21.49.35.64.43.15.08.45.1.9.06.68-.08,1.36-.12,2.03-.12s1.34-.04,2.03-.12c.48-.08.67-.33.56-.74-.07-.41-.09-.68-.05-.81.1-1.36.15-3.08.15-5.15,0-.62-.04-.99-.13-1.12-.09-.12-.27-.19-.54-.19-1.03,0-2.01,0-2.95.03s-1.8.05-2.57.09-1.43.09-1.98.15-.94.11-1.18.16c-.51.12-.92.28-1.21.46s-.51.5-.67.93-.27,1.03-.33,1.8c-.07.77-.12,1.79-.15,3.07-.04.7-.14,1.19-.31,1.46s-.56.49-1.18.65c-.38.08-.72.02-1.03-.19s-.5-.52-.56-.93c-.14-.66-.25-1.46-.33-2.39s-.15-1.84-.18-2.73-.03-1.69,0-2.42c.03-.72.1-1.21.21-1.46.34-.91.83-1.53,1.46-1.86s1.27-.33,1.92,0c.34.21.99.39,1.95.56.96.17,1.97.21,3.03.12,1.06-.08,2.04-.13,2.95-.15.91-.02,1.79-.05,2.64-.09.48-.04.78-.11.9-.22.12-.1.18-.34.18-.71,0-.29-.07-.47-.21-.56-.14-.08-.39-.12-.77-.12-1.2-.04-2.18-.06-2.95-.06s-1.39,0-1.87.03-.85.05-1.1.09c-.26.04-.47.08-.64.12-1.13.33-1.78.12-1.95-.62-.07-.25-.06-.54.03-.87.08-.33.25-.6.49-.81.38-.33.72-.52,1.03-.56s.6-.02.87.06c.1.04.23.07.39.09.15.02.37.03.64.03.38,0,.72-.02,1.03-.06s.74-.12,1.28-.25c.44-.12,1.26-.21,2.44-.25,1.18-.04,2.57-.04,4.16,0s3.34.13,5.24.28,3.81.34,5.72.59c.27.04.5.07.67.09.17.02.34.07.51.15.21.08.32.27.33.56.02.29-.11.6-.38.93-.21.25-.59.44-1.16.59-.56.15-1.38.2-2.44.16-.82-.04-1.62-.07-2.39-.09-.77-.02-1.5-.03-2.18-.03-.48,0-.79.05-.92.15-.14.1-.21.28-.21.53,0,.29.06.47.18.53s.39.09.8.09c1.27.04,2.59.09,3.98.16,1.39.06,2.95.15,4.7.28.51.04.9.03,1.15-.03.26-.06.57-.22.95-.46.55-.37,1.16-.4,1.85-.09.68.31,1.27.84,1.75,1.58.38.62.57,1.53.59,2.73s-.16,2.87-.54,5.02c-.17.95-.89,1.55-2.16,1.8-1.13.21-1.68-.27-1.64-1.43.07-1.32.1-2.39.1-3.19s-.05-1.43-.15-1.86-.27-.74-.51-.93c-.24-.19-.55-.32-.92-.4-.21-.04-.59-.08-1.16-.12-.56-.04-1.26-.08-2.08-.12-.82-.04-1.75-.07-2.8-.09-1.04-.02-2.13-.03-3.26-.03-.41,0-.67.09-.77.28s-.17.59-.21,1.21c-.04.99-.05,1.93-.05,2.82v2.51c0,.46.03.74.1.87s.24.19.51.19c1.44-.04,2.83-.03,4.18.03s2.68.15,3.98.28c.99.08,1.61.21,1.85.37.24.17.34.41.31.74-.03.37-.18.65-.44.84s-.88.24-1.87.15c-1.4-.08-2.89-.14-4.47-.19-1.57-.04-3.17-.06-4.77-.06s-3.19.03-4.75.09-3.02.15-4.39.28c-.45.04-.72.1-.82.19-.1.08-.15.19-.15.31,0,.25.04.41.13.5.09.08.37.12.85.12,1.61-.04,3.15-.07,4.62-.09,1.47-.02,2.93-.03,4.36-.03s2.87.02,4.31.06c1.44.04,2.91.1,4.41.19.75.04,1.27.12,1.54.25.27.12.43.31.46.56.03.79-.36,1.16-1.18,1.12-.99-.04-1.92-.07-2.8-.09-.87-.02-1.95-.03-3.23-.03s-2.9.03-4.85.09-4.5.16-7.65.28c-.45.04-.73.11-.85.22-.12.1-.21.26-.28.46-.03.21,0,.34.1.4s.39.07.87.03c2.16-.08,4.35-.13,6.57-.15,2.22-.02,4.29-.03,6.21-.03s3.58,0,5,.03,2.42.05,3,.09c1.3.12,1.88.5,1.75,1.12-.07.33-.23.62-.49.87-.26.25-.68.37-1.26.37h-2.1c-.68,0-.92.17-.72.5.44.58.56,1.08.36,1.49-.21.41-.8.66-1.8.74-.48.04-.73.12-.74.25-.02.12.21.27.69.43,3.01.99,5.78,1.67,8.31,2.05s4.98.5,7.34.37c.65-.04,1.02,0,1.1.16.08.15.04.38-.13.71h.04,0ZM20.01,11.97c.21-.21.26-.37.18-.5-.09-.12-.25-.19-.49-.19-1.3.25-2.55.42-3.75.53-1.2.1-2.46.15-3.8.15-.51,0-.95.13-1.31.4-.36.27-.52.59-.49.96.03.54.33.89.9,1.05.56.17,1.51.08,2.85-.25,2.43-.5,4.4-1.22,5.9-2.17v.02h.01ZM19.13,9.8c-.58-.08-1.09-.15-1.51-.22-.43-.06-.81-.13-1.16-.22-.34-.08-.65-.15-.92-.22-.27-.06-.56-.13-.87-.22-.99-.33-1.8-.43-2.41-.31-.62.12-.99.43-1.13.93-.1.33-.03.63.21.9.24.27.75.47,1.54.59,1.03.17,2.11.21,3.26.12,1.15-.08,2.15-.23,3-.43.96-.41.96-.72,0-.93h0ZM30.68,25.68c.44-.78.34-1.18-.31-1.18h-1.64c-1.1-.04-2.16-.05-3.18-.03-1.03.02-2.14.07-3.34.15-.51.04-.84.13-.98.28s-.24.51-.31,1.08c-.14.83-.23,1.59-.28,2.29s-.04,1.26.03,1.67c.07.74.22,1.22.46,1.43s.7.27,1.39.19c1.4-.17,2.86-.72,4.36-1.67.44-.29.67-.52.67-.68s-.19-.35-.56-.56c-.82-.45-1.42-.72-1.8-.81-.38-.08-.75-.14-1.13-.19-.24,0-.48-.07-.72-.22-.24-.14-.39-.34-.46-.59-.1-.37-.09-.68.03-.93s.4-.47.85-.68c.31-.16.71-.21,1.21-.12.5.08,1.16.29,1.98.62.31.12.62.26.92.4.31.15.6.26.87.34.48.21.83.28,1.05.22s.52-.4.9-1.02h-.01ZM37,13.15c-.79-.16-1.47-.31-2.05-.43s-1.12-.25-1.62-.37-.97-.26-1.41-.4c-.45-.14-.92-.3-1.44-.47-1.61-.62-2.55-.39-2.82.68-.24.91.34,1.49,1.75,1.74.72.08,1.39.15,2,.19.62.04,1.21.07,1.77.09.56.02,1.13.02,1.69,0s1.17-.05,1.82-.09c.62-.04.92-.18.9-.4-.02-.23-.21-.4-.59-.53h0ZM29.4,10.86c1.03-.08,1.99-.13,2.9-.16.91-.02,1.86-.05,2.85-.09.51-.04.85-.18,1-.4.15-.23.2-.53.13-.9-.27-1.07-1.11-1.43-2.51-1.05-1.13.33-2.04.63-2.72.9-.68.27-1.39.57-2.1.9-.68.25-.95.46-.79.65.15.19.57.24,1.26.16h-.02Z"/><path d="M13.89,43.43c-.07,1.68-.18,5.19-.18,7.46,0,1.63,1.03,2.22,2.47,2.22,2.75,0,4.27-1.53,5.32-3.04l.74.88c-1.02,1.4-2.88,3.22-6.09,3.22-2.06,0-3.52-.84-3.52-3.22,0-2.22.16-5.91.16-7.52,0-.52-.03-1-.12-1.4h1.34c-.07.47-.12.94-.13,1.4h0Z"/><path d="M34.1,43.27c-.65,1.02-2.06,3.56-2.82,5,.74-.69,1.54-.99,2.28-.99.96,0,1.68.6,1.72,1.75.03.91,0,2.03.04,2.77.04.76.56,1.09,1.24,1.09,1.71,0,2.71-2.09,3.07-3.6l.87.71c-.78,2.34-2,3.97-4.1,3.97-1.56,0-2.03-.99-2.07-1.82-.04-.87-.02-2-.06-2.84-.04-.66-.44-1.07-1.12-1.07-1.22,0-2.38,1.24-2.96,2.4-.46.87-1.1,2.63-1.29,3.35l-1.13-.4c1.09-2.97,4.34-9.02,5.15-10.43.16-.34.34-.68.5-1.09l1.16.49c-.13.18-.31.44-.47.72h-.01Z"/></g></svg>