<?xml version="1.0" encoding="UTF-8"?><svg id="Layer_2" xmlns="http://www.w3.org/2000/svg" viewBox="0 0 48.88 55.46"><g id="_5"><path d="M48.47,27.09c-.58.79-1.16,1.42-1.75,1.89-.58.48-1.27.88-2.05,1.21-.86.33-1.75.51-2.69.53s-1.96-.18-3.05-.59c-2.16-.83-4.23-1.43-6.21-1.8-1.98-.37-4-.6-6.06-.68-1.51-.04-3.21-.07-5.11-.09-1.9-.02-3.76,0-5.57.03-1.81.04-3.46.09-4.93.15s-2.53.16-3.18.28c-1.2.21-2.18.4-2.95.59-.77.19-1.58.44-2.44.77-.48.21-.91.28-1.28.22-.38-.06-.67-.2-.87-.4-.21-.21-.32-.47-.33-.81-.02-.33.09-.66.33-.99.96-1.32,1.97-2.19,3.03-2.6s1.85-.5,2.36-.25c.27.12.65.22,1.13.28s1.32.09,2.51.09c.58,0,1.22,0,1.92-.03.7-.02,1.46-.03,2.28-.03.58,0,.96-.08,1.13-.25.17-.16.22-.56.15-1.18-.03-.58-.1-.94-.21-1.08-.1-.14-.33-.22-.67-.22h-1.85c-1.16,0-2.15.03-2.95.09-.8.06-1.48.13-2.03.22-.58.08-1.04,0-1.36-.22-.33-.23-.52-.51-.59-.84s0-.69.23-1.08c.22-.39.59-.71,1.1-.96.41-.25.77-.43,1.08-.56.31-.12.6-.21.87-.25s.56-.05.85-.03.64.09,1.05.22c.31.12,1.45.19,3.44.19.41,0,.68-.04.82-.12s.21-.33.21-.74c0-.99.33-1.66,1-2.01.67-.35,1.57-.36,2.69-.03.48.12.85.35,1.13.68.27.33.43.85.46,1.55,0,.41.21.62.62.62.55,0,1.09,0,1.64-.03.55-.02,1.11-.03,1.69-.03.48-.04.95-.06,1.41-.06h1.41c.34,0,.56-.03.64-.09s.13-.18.13-.34c0-.99.33-1.66,1-2.01.67-.35,1.57-.36,2.69-.03.48.12.85.35,1.13.68.27.33.43.85.46,1.55,0,.21.15.31.46.31.79.04,1.58.07,2.39.09.8.02,1.62.05,2.44.09,1.61.08,2.68.25,3.21.5s.74.58.64.99c-.07.29-.15.53-.26.71-.1.19-.27.34-.51.46s-.56.22-.95.28-.92.09-1.57.09h-2.41c-.82,0-1.63.02-2.41.06-.41,0-.67.07-.77.22-.1.15-.15.51-.15,1.08,0,.66.06,1.06.18,1.21.12.15.4.22.85.22,1.95.04,3.6.07,4.95.09,1.35.02,2.51.04,3.46.06.96.02,1.8.04,2.52.06s1.42.05,2.1.09c1.78.04,2.22.7,1.33,1.98h.04,0ZM19.78,29.63c.55.58.74,1.2.56,1.86-.17.66-.96,1.45-2.36,2.36-.96.58-1.85,1.08-2.67,1.49s-1.62.75-2.39,1.02c-.77.27-1.54.48-2.31.62-.77.15-1.57.24-2.39.28-.62.04-1.1,0-1.44-.12s-.56-.29-.67-.5c-.1-.21-.1-.42,0-.65.1-.23.31-.4.62-.53,1.54-.7,2.93-1.51,4.18-2.42s2.44-1.94,3.57-3.1c.82-.83,1.73-1.26,2.72-1.3.99-.04,1.85.29,2.57.99h.01ZM7.36,11.4c-.03-.21-.06-.5-.08-.87s-.03-.76-.03-1.18.02-.82.05-1.21.07-.71.1-.96c.07-.58.1-1.26.1-2.05s-.03-1.49-.1-2.11c-.27-2.23.68-3.12,2.87-2.67.44.08.77.19.98.31.27.17.49.27.64.31.15.04.37.06.64.06.99,0,1.92,0,2.77-.03.85-.02,1.47-.05,1.85-.09.58-.04,1.06-.11,1.44-.22.38-.1.8-.28,1.28-.53.24-.12.52-.18.85-.15.33.02.64.08.95.19.31.1.59.25.85.43.26.19.44.4.54.65.14.33.21.65.23.96.02.31,0,.75-.08,1.33-.07.46-.11.93-.13,1.43-.02.5-.03,1.05-.03,1.67,0,.58-.19,1.12-.56,1.61-.38.5-.91.81-1.59.93-.99.25-1.87.17-2.62-.25-.1-.04-.35-.08-.74-.12-.39-.04-.86-.06-1.39-.06s-1.11,0-1.75.03c-.63.02-1.24.05-1.82.09-.51.08-.75.25-.72.5,0,.08,0,.19.03.31.02.12.06.35.13.68.17,1.12.65,1.65,1.44,1.61.82-.04,1.68-.11,2.57-.22.89-.1,1.73-.23,2.52-.37.79-.14,1.49-.29,2.1-.43.62-.14,1.08-.28,1.39-.4.72-.21,1.18-.12,1.39.25.17.29.18.54.03.74-.15.21-.39.41-.69.62-.79.46-1.58.88-2.39,1.27-.8.39-1.64.77-2.52,1.12-.87.35-1.81.7-2.8,1.05s-2.09.71-3.29,1.08c-1.1.37-1.99.59-2.69.65s-1.31-.2-1.82-.77c-.41-.45-.65-.97-.72-1.55s.07-1.03.41-1.36c.17-.16.3-.42.38-.77.08-.35.09-.86.03-1.52h0ZM18.45,4.02c0-.33-.1-.57-.31-.71s-.56-.22-1.08-.22c-.44,0-1.08.02-1.9.06s-1.61.1-2.36.19c-.38.04-.62.15-.74.31-.12.17-.2.6-.23,1.3-.03.62,0,1.02.13,1.21.12.19.35.28.69.28h4.52c.48,0,.8-.08.95-.25.15-.16.25-.41.28-.74.03-.25.05-.46.05-.65v-.77h0ZM27.69,23.31c0-.5-.06-.83-.18-.99s-.37-.25-.74-.25h-2.82c-.92,0-1.83.02-2.72.06-.41,0-.68.08-.8.25s-.18.54-.18,1.12.06.94.18,1.08c.12.15.37.22.74.22h5.59c.38,0,.62-.09.74-.28s.18-.59.18-1.21h.01ZM43.44,12.52c-.03.7-.27,1.28-.72,1.74-.44.46-1.37.85-2.77,1.18-1.3.33-2.87.53-4.72.59s-3.8-.13-5.85-.59c-1.47-.33-2.52-.76-3.13-1.3-.62-.54-.99-1.32-1.13-2.36-.17-1.32-.28-2.69-.33-4.09s0-2.89.13-4.46c.1-1.32.35-2.19.74-2.6.39-.41,1.05-.58,1.98-.5.62.08,1.08.21,1.39.37.17.12.32.21.44.25s.3.06.54.06c.96.04,1.89.07,2.8.09.91.02,1.67.03,2.28.03.51,0,1.28-.16,2.31-.5.82-.29,1.62-.3,2.39-.03.77.27,1.21.69,1.31,1.27.07.37.1.82.1,1.33s-.03,1.03-.08,1.55-.12,1.02-.21,1.52-.2.91-.33,1.24c-.27.7-.68,1.23-1.21,1.58s-1,.51-1.41.46c-.48-.04-.86-.09-1.13-.16-.27-.06-.6-.13-.98-.22-.14-.04-.4-.07-.8-.09-.39-.02-.86-.04-1.41-.06-.55-.02-1.14-.03-1.77-.03h-1.87c-.48,0-.72.21-.72.62,0,.46.03.83.08,1.12s.15.53.31.71c.15.19.39.33.69.43.31.1.72.2,1.23.28s1.21.13,2.08.15c.87.02,1.78.02,2.72,0s1.86-.07,2.75-.15c.89-.08,1.61-.19,2.16-.31.85-.21,1.44-.23,1.75-.06s.44.48.41.93h-.02ZM40.31,37.19c-.27.33-.58.5-.92.5s-1.01-.19-2-.56c-1.64-.62-3.23-1.28-4.77-1.98-1.54-.7-3.13-1.43-4.77-2.17-.82-.33-1.31-.83-1.46-1.49-.15-.66.03-1.28.54-1.86.62-.7,1.39-1.05,2.31-1.05s1.83.37,2.72,1.12c1.44,1.16,2.75,2.2,3.93,3.13s2.35,1.75,3.52,2.45c.62.41.98.75,1.08,1.02.1.27.05.57-.15.9h-.03ZM36.1,4.21c0-.37-.09-.62-.28-.74-.19-.12-.52-.21-1-.25-.27-.04-.84-.07-1.69-.09-.86-.02-1.75,0-2.67.03-.27,0-.48.08-.62.25-.14.17-.24.64-.31,1.43s-.05,1.28.05,1.49c.1.21.32.31.67.31h3.95c.58,0,.98-.06,1.21-.19.22-.12.37-.39.44-.81.03-.21.08-.44.15-.71s.1-.51.1-.71h0Z"/><path d="M14.19,43.99c.65,0,3.74-.13,4.57-.22.32-.03.59-.09.75-.15l.68.75c-.18.12-.53.35-.72.51-1.1.91-3.35,2.79-4.56,3.75,2.28-.25,4.97-.44,7.13-.44v.97c-1.44-.07-2.84-.06-3.71.07-1.46.21-2.9,1.46-2.9,2.88,0,1.54,1.24,2.04,2.59,2.24.87.12,1.56.09,2.09.04l-.22,1.06c-3.56.15-5.47-.97-5.47-3.19,0-1.32,1.03-2.41,1.82-2.87-1.62.15-3.63.38-5.46.68l-.09-.99c.79-.09,1.79-.21,2.54-.29,1.65-1.15,4.04-3.27,4.99-4.09-.66.04-3.38.16-4.02.22-.38.03-.81.06-1.1.09l-.04-1.07c.34.03.68.04,1.12.04h0Z"/><path d="M34.18,44.68c-.65,1.02-2.06,3.56-2.82,5,.74-.69,1.54-.99,2.28-.99.96,0,1.68.6,1.72,1.75.03.91,0,2.03.04,2.77.04.76.56,1.09,1.24,1.09,1.71,0,2.71-2.09,3.07-3.6l.87.71c-.78,2.34-2,3.97-4.1,3.97-1.56,0-2.03-.99-2.07-1.82-.04-.87-.02-2-.06-2.84-.04-.66-.44-1.07-1.12-1.07-1.22,0-2.38,1.24-2.96,2.4-.46.87-1.1,2.63-1.29,3.35l-1.13-.4c1.09-2.97,4.34-9.02,5.15-10.43.16-.34.34-.68.5-1.09l1.16.49c-.13.18-.31.44-.47.72h0Z"/></g></svg>