<?xml version="1.0" encoding="UTF-8"?><svg id="Layer_2" xmlns="http://www.w3.org/2000/svg" viewBox="0 0 41.31 54.89"><g id="_7"><path d="M41.05,30.98c-.48.91-1.14,1.78-1.98,2.6-.84.83-1.92,1.59-3.26,2.29-.65.33-1.34.52-2.08.56s-1.57-.11-2.52-.46c-.94-.35-2.03-.91-3.26-1.67s-2.67-1.81-4.31-3.13c-.31-.25-.68-.53-1.1-.84-.43-.31-.89-.64-1.39-.99s-1.01-.7-1.54-1.05-1.04-.69-1.51-1.02c-.34-.25-.62-.19-.82.19-1.13,1.74-2.24,3.14-3.34,4.22s-2.21,1.84-3.34,2.29c-.69.29-1.32.62-1.9.99s-1.23.83-1.95,1.36c-1.95,1.4-3.83,1.12-5.65-.87C.38,34.62.01,33.74,0,32.78c-.02-.95.38-2.13,1.21-3.53.31-.54.58-1.35.82-2.45.24-1.09.43-2.35.56-3.75.14-1.4.22-2.91.26-4.53.03-1.61.03-3.2-.03-4.77-.05-1.57-.16-3.05-.33-4.43-.17-1.38-.39-2.57-.67-3.56-.38-1.45-.45-2.59-.23-3.44S2.4.8,3.36.3C3.94-.03,4.57-.09,5.26.11c.68.21,1.27.66,1.75,1.36.17.33.41.5.72.5,3.32-.21,6.12-.32,8.39-.34,2.27-.02,3.94.03,5,.16,1.23.12,2.42.13,3.57.03s1.89-.28,2.23-.53c1.13-.83,2.26-.83,3.39,0,1.23.91,1.69,2.36,1.39,4.34-.1.62-.19,1.81-.26,3.56-.07,1.76-.07,3.77,0,6.04.03,1.08.02,1.95-.05,2.64-.07.68-.17,1.21-.31,1.58-.14.37-.3.62-.49.74-.19.12-.4.17-.64.12-1.06-.16-1.23.25-.51,1.24.58.83.82,1.51.72,2.05-.1.54-.51.81-1.23.81-.86,0-1.56.06-2.1.19-.55.12-1.01.25-1.39.37-.48.17-.73.35-.74.56-.02.21.21.41.69.62,1.75.7,3.29,1.27,4.65,1.71,1.35.43,2.59.75,3.72.96s2.2.33,3.21.37c1.01.04,2.06.02,3.16-.06.55-.04.91.12,1.08.5.17.37.12.83-.15,1.36h0ZM25.19,21.49c.34-.45.49-.84.44-1.15s-.3-.51-.74-.59c-1.3-.21-2.69-.38-4.16-.53-1.47-.14-2.95-.25-4.44-.31s-2.95-.08-4.39-.06-2.77.05-4,.09c-.31,0-.46.25-.46.74-.03,1.32-.07,2.67-.1,4.03s-.07,2.48-.1,3.35c-.07,1.32.07,2.14.41,2.45s1.08.32,2.21.03c1.09-.29,2.05-.71,2.87-1.27s1.68-1.27,2.57-2.14c.27-.33.26-.6-.05-.81-1.3-.78-2.27-1.3-2.9-1.55s-1.21-.39-1.72-.43c-.41-.04-.69-.23-.85-.56-.15-.33-.09-.72.18-1.18.38-.7.94-1.08,1.69-1.15.75-.06,1.98.36,3.7,1.27,1.2.62,2.33,1.19,3.39,1.71,1.06.52,1.76.88,2.1,1.08.21.12.43.17.67.12.24-.04.6-.23,1.08-.56.58-.41,1.08-.84,1.49-1.27s.79-.88,1.13-1.33l-.02.02h0ZM26.47,13.74c.07-.87.06-1.43-.03-1.67-.09-.25-.21-.37-.39-.37-1.61-.04-3.12-.07-4.54-.09-1.42-.02-2.81-.02-4.18,0s-2.75.05-4.16.09c-1.4.04-2.91.08-4.52.12-.48,0-.81.12-1,.37s-.28.77-.28,1.55c0,.7.09,1.17.28,1.4s.54.34,1.05.34h14.73c.65,0,1.17-.03,1.57-.09.39-.06.69-.16.9-.28s.34-.3.41-.53.12-.51.15-.84h.01ZM26.52,7.6c-.07-1.36-.22-2.21-.46-2.54-.24-.33-.65-.52-1.23-.56-1.1-.04-2.21-.06-3.34-.06s-2.34,0-3.64.03c-1.3.02-2.71.06-4.23.12-1.52.06-3.21.15-5.06.28-.38.04-.64.19-.8.43s-.27.81-.33,1.67c-.03.7.02,1.17.15,1.4.14.23.39.34.77.34,3.46-.04,6.65-.07,9.57-.09,2.93-.02,5.67,0,8.24.09.27,0,.39-.37.36-1.12h0Z"/><path d="M5.1,51.83c0,1.18,1.18,1.96,3.57,1.96,2.04,0,3.94-.22,5.02-.57v1.1c-1,.29-2.88.53-4.99.53-2.93,0-4.66-.97-4.66-2.78,0-.75.16-1.44.31-2.03l1.06.1c-.21.59-.31,1.15-.31,1.69ZM8.8,44.45c1.41,0,2.87-.1,3.93-.21v1.07c-1,.06-2.57.18-3.91.18-1.47,0-2.72-.07-3.87-.16v-1.07c1.04.13,2.4.19,3.85.19ZM14.36,44.63l-.74.34c-.29-.6-.79-1.5-1.21-2.04l.72-.31c.37.51.91,1.41,1.22,2.02h0ZM15.99,44.04l-.74.32c-.32-.63-.81-1.47-1.24-2.03l.72-.31c.4.54.96,1.47,1.25,2.02h0Z"/><path d="M26.4,44.17c-.65,1.02-2.06,3.56-2.82,5,.74-.69,1.54-.99,2.28-.99.96,0,1.68.6,1.72,1.75.03.91,0,2.03.04,2.77.04.76.56,1.09,1.24,1.09,1.71,0,2.71-2.09,3.07-3.6l.87.71c-.78,2.34-2,3.97-4.1,3.97-1.56,0-2.03-.99-2.07-1.82-.04-.87-.01-2-.06-2.84-.04-.66-.44-1.07-1.12-1.07-1.22,0-2.38,1.24-2.96,2.4-.46.87-1.1,2.63-1.29,3.35l-1.13-.4c1.09-2.97,4.34-9.02,5.15-10.43.16-.34.34-.68.5-1.09l1.16.49c-.13.18-.31.44-.47.72h0Z"/></g></svg>