<?xml version="1.0" encoding="UTF-8"?><svg id="Layer_2" xmlns="http://www.w3.org/2000/svg" viewBox="0 0 43.86 56.47"><g id="_8"><path d="M16.48,23.07c-.62.7-1.27,1.37-1.98,2.02-.7.64-1.51,1.28-2.41,1.92-.91.64-1.95,1.3-3.13,1.98s-2.56,1.4-4.13,2.14c-.75.37-1.45.54-2.1.5-.65-.04-1.23-.37-1.75-.99-.89-1.07-1.17-2.04-.85-2.88.32-.85,1.36-1.54,3.1-2.08.58-.21,1.16-.39,1.72-.56.56-.16,1.19-.35,1.87-.56.41-.12.68-.3.82-.53s.21-.73.21-1.52v-6.14c0-.37-.05-.62-.15-.74s-.31-.19-.62-.19c-.51.04-1.07.13-1.67.28s-1.14.36-1.62.65c-.55.33-1,.46-1.36.37-.36-.08-.62-.27-.8-.56-.17-.29-.23-.65-.18-1.08.05-.43.23-.86.54-1.27.79-1.07,1.39-1.76,1.8-2.05.41-.29.77-.37,1.08-.25.27.08.61.17,1,.25s.71.12.95.12c.41,0,.68-.06.82-.19.14-.12.21-.35.21-.68v-6.2c0-.62.03-1.13.1-1.52.07-.39.21-.7.41-.93.21-.23.48-.39.82-.5.34-.1.79-.2,1.33-.28.92-.12,1.59.36,2,1.46s.48,2.59.21,4.5c-.03.33-.07.72-.1,1.18-.03.46-.09.97-.15,1.55-.07.7-.05,1.15.05,1.33s.34.28.72.28h1.64c.44,0,.8.16,1.05.47.26.31.4.65.44,1.02.03.37-.06.72-.28,1.05-.22.33-.59.52-1.1.56-1.1.08-1.83.25-2.21.5s-.6.79-.67,1.61c-.03.54-.05,1.18-.05,1.92v1.98c0,.79.11,1.27.33,1.46.22.19.57.2,1.05.03.31-.08.63-.18.98-.28.34-.1.7-.22,1.08-.34.68-.21,1.11-.16,1.28.12.17.29.07.64-.31,1.05v.02h0ZM43.79,12.04c-.1,1.86-.2,3.72-.28,5.58-.09,1.86-.16,3.6-.23,5.21,0,.58-.09,1.16-.26,1.74s-.39,1.1-.67,1.55c-.27.46-.62.82-1.03,1.08-.41.27-.86.4-1.33.4-1.3-.04-2.31-.35-3.03-.93-.17-.12-.39-.22-.67-.28-.27-.06-.56-.09-.87-.09-1.03,0-1.67.1-1.92.31-.26.21-.37.77-.33,1.67.03,1.2.06,2.43.08,3.69s.06,2.53.13,3.81c.07,1.45-.06,2.5-.39,3.16s-1.04,1.09-2.13,1.3c-1.1.21-1.79.11-2.08-.28-.29-.39-.4-1.15-.33-2.26.07-1.4.11-2.91.13-4.53.02-1.61.06-3.29.13-5.02.03-.87-.03-1.4-.18-1.61-.15-.21-.56-.31-1.21-.31-.45,0-1.01,0-1.69.03-.69.02-1.28.05-1.8.09-.31,0-.56.05-.74.15-.19.1-.42.26-.69.46-.38.25-.98.35-1.8.31-.72-.04-1.28-.42-1.69-1.15-.41-.72-.6-1.6-.56-2.63.03-.66.03-1.63,0-2.91s-.08-2.61-.13-4c-.05-1.38-.11-2.67-.18-3.84-.07-1.18-.12-2.01-.15-2.51-.07-.7-.02-1.27.15-1.71.17-.43.55-.8,1.13-1.08.79-.33,1.59-.21,2.41.37.24.21.45.33.64.37s.47.06.85.06c.65-.04,1.41-.06,2.28-.06h2.23c.44,0,.73-.09.85-.28s.18-.55.18-1.08v-1.8c0-.66-.02-1.26-.05-1.8v-1.18c0-.37.07-.71.21-1.02s.34-.56.62-.74c.27-.19.67-.28,1.18-.28,1.16,0,1.98.33,2.44.99s.64,1.67.54,3.04c-.03.33-.06.77-.08,1.3-.02.54-.04.99-.08,1.36-.03.58,0,.96.1,1.15s.39.28.87.28h2.82c.27,0,.56-.02.87-.06s.72-.14,1.23-.31c.75-.21,1.33-.3,1.75-.28.41.02.89.22,1.44.59.34.21.61.41.8.62.19.21.33.46.44.74.1.29.15.64.15,1.05s-.02.93-.05,1.55l-.02.02h0ZM28.75,12.97c0-.41-.03-.75-.1-1.02-.07-.27-.21-.47-.44-.62-.22-.14-.55-.23-.98-.25s-1.02,0-1.77.03c-1.1.08-1.81.25-2.16.5-.34.25-.51.79-.51,1.61,0,.99.16,1.6.49,1.83.32.23,1.07.32,2.23.28.72,0,1.29-.03,1.72-.09s.75-.18.98-.34c.22-.16.37-.4.44-.71.07-.31.1-.71.1-1.21h0ZM28.75,20.78c0-.54-.03-.96-.08-1.27s-.18-.56-.38-.74c-.21-.19-.51-.31-.92-.37s-.98-.09-1.69-.09c-1.16,0-1.92.13-2.26.4-.34.27-.51.96-.51,2.08,0,1.2.17,1.94.51,2.23s1.11.39,2.31.31c.68-.04,1.23-.09,1.64-.16s.72-.18.92-.34c.21-.16.33-.4.38-.71s.08-.75.08-1.33h0ZM38.76,21.4c.07-1.4.04-2.27-.08-2.6s-.44-.5-.95-.5c-.55,0-1.11,0-1.69-.03-.58-.02-1.16-.03-1.75-.03s-.93.1-1.05.31c-.12.21-.18.81-.18,1.8,0,1.28.08,2.07.23,2.36.15.29.52.43,1.1.43h2.87c.55,0,.92-.14,1.13-.43s.33-.72.36-1.3h.01ZM39.17,12.29c0-.54-.09-.9-.26-1.08-.17-.19-.5-.3-.98-.34s-1-.06-1.57-.06h-1.77c-.69,0-1.1.11-1.26.34-.15.23-.23.84-.23,1.83s.08,1.66.23,1.89c.15.23.56.34,1.21.34h3.08c.34,0,.62-.03.82-.09.21-.06.36-.2.46-.4.1-.21.17-.5.21-.87.03-.37.05-.89.05-1.55h0Z"/><path d="M12.46,53.27c0,1.16,1.19,1.94,3.57,1.94,2.04,0,3.94-.22,5.02-.57v1.12c-1,.28-2.88.52-4.99.52-2.91,0-4.66-.96-4.66-2.78,0-.75.16-1.43.31-2.03l1.06.1c-.19.59-.31,1.15-.31,1.71h0ZM16.16,45.87c1.41,0,2.85-.09,3.91-.21v1.07c-1,.07-2.56.18-3.91.18-1.47,0-2.72-.06-3.87-.16v-1.06c1.06.12,2.4.18,3.87.18Z"/><path d="M33.5,45.75c-.65,1.02-2.06,3.56-2.82,5,.74-.69,1.54-.99,2.28-.99.96,0,1.68.6,1.72,1.75.03.91,0,2.03.04,2.77.04.76.56,1.09,1.24,1.09,1.71,0,2.71-2.09,3.07-3.6l.87.71c-.78,2.34-2,3.97-4.1,3.97-1.56,0-2.03-.99-2.07-1.82-.04-.87-.01-2-.06-2.84-.04-.66-.44-1.07-1.12-1.07-1.22,0-2.38,1.24-2.96,2.4-.46.87-1.1,2.63-1.29,3.35l-1.13-.4c1.09-2.97,4.34-9.02,5.15-10.43.16-.34.34-.68.5-1.09l1.16.49c-.13.18-.31.44-.47.72h-.01Z"/></g></svg>