<?xml version="1.0" encoding="UTF-8"?><svg id="Layer_2" xmlns="http://www.w3.org/2000/svg" viewBox="0 0 49.42 55.91"><g id="_6"><path d="M20.17,11.97c0,.62-.14,1.06-.41,1.33s-.7.44-1.28.53c-.51.08-1.04.15-1.59.19-.55.04-1.04.08-1.49.12-.38.04-.62.15-.74.31-.12.17-.18.48-.18.93,0,.83,0,1.72.03,2.67.02.95,0,2.01-.03,3.16,0,.62.13.97.38,1.05.26.08.59.08,1,0,.68-.16,1.37-.33,2.05-.5.68-.16,1.42-.35,2.21-.56.31-.08.59,0,.85.22.26.23.39.53.41.9s-.15.8-.49,1.27c-.34.48-.96.9-1.85,1.27-.62.25-1.19.49-1.72.71-.53.23-1.07.44-1.62.65-.55.21-1.11.41-1.69.62-.58.21-1.25.43-2,.68-1.03.33-2.16.75-3.41,1.27s-2.39,1.04-3.41,1.58c-1.3.66-2.42.79-3.36.37-.94-.41-1.5-1.03-1.67-1.86-.27-1.07-.21-1.89.21-2.45s.92-.9,1.54-1.02c1.27-.29,2.51-.56,3.72-.81s2.47-.54,3.77-.87c.44-.08.71-.22.8-.4.08-.19.13-.51.13-.96-.03-1.12-.05-2.19-.05-3.22s-.02-2.05-.05-3.04c-.03-.62-.13-1.03-.28-1.24s-.57-.27-1.26-.19c-.44.04-.97.11-1.57.22-.6.1-1.09.22-1.46.34-.51.21-.97.25-1.36.12-.39-.12-.7-.34-.92-.65s-.34-.68-.36-1.12c-.02-.43.09-.88.33-1.33.58-1.16,1.15-1.85,1.72-2.08.56-.23,1.1-.15,1.62.22.17.17.7.25,1.59.25.82,0,1.32-.07,1.49-.22.17-.14.22-.53.15-1.15-.03-.5-.06-1.04-.08-1.64s-.04-1.15-.08-1.64c-.14-2.11.08-3.47.64-4.09s1.41-.74,2.54-.37c1.03.33,1.64.98,1.85,1.95s.24,2.1.1,3.38c-.03.33-.07.73-.1,1.21-.03.48-.07.92-.1,1.33-.03.5,0,.82.1.96.1.15.31.24.62.28.48.04,1.03.06,1.64.06s1.21.02,1.8.06c.55.04.91.17,1.08.37.17.21.26.48.26.81l-.02.02h0ZM49.07,32.06c-.58,1.08-1.41,2.11-2.49,3.1s-2.32,1.78-3.72,2.36c-.68.29-1.4.32-2.16.09-.75-.23-1.52-.88-2.31-1.95-.96-1.28-1.78-2.41-2.46-3.38-.69-.97-1.37-1.93-2.05-2.88-.68-.95-1.43-1.97-2.23-3.07-.8-1.09-1.77-2.43-2.9-4-.21-.29-.36-.42-.46-.4s-.24.24-.41.65c-.82,1.9-1.88,3.87-3.18,5.89-1.3,2.03-2.77,3.82-4.41,5.39-.58.58-1.14,1.05-1.67,1.43-.53.37-1.08.66-1.64.87-.56.21-1.16.34-1.8.4-.63.06-1.36.05-2.18-.03-1.23-.08-2.28-.36-3.13-.84-.86-.47-1.44-1.04-1.75-1.7-.24-.45-.28-.83-.13-1.12.15-.29.57-.47,1.26-.56.99-.08,2.07-.3,3.23-.65,1.16-.35,2.32-.81,3.46-1.36,1.15-.56,2.25-1.21,3.31-1.95,1.06-.74,1.97-1.57,2.72-2.48,1.44-1.74,2.48-3.56,3.13-5.49.65-1.92.8-3.71.46-5.36-.14-.87-.5-1.01-1.08-.43-1.2,1.2-2.64,2.44-4.31,3.72-.58.46-1.23.69-1.95.71s-1.28-.13-1.69-.47c-.48-.41-.72-.77-.72-1.08s.29-.63.87-.96c.85-.5,1.73-1.18,2.62-2.05.89-.87,1.76-1.91,2.62-3.13.85-1.22,1.66-2.6,2.41-4.15.75-1.55,1.4-3.25,1.95-5.11.31-1.07.73-1.73,1.26-1.95.53-.23,1.15-.13,1.87.28.21.12.39.34.56.65.17.31.32.68.44,1.12.12.43.21.9.28,1.4s.08.95.05,1.36c-.03.58-.02.95.05,1.12.07.17.29.29.67.37,1.27.33,2.33.56,3.18.68s1.61.23,2.26.31c.38.04.79.06,1.23.06s.85-.04,1.23-.12c1.2-.21,2.1-.08,2.69.37.6.46.95,1.03,1.05,1.74.21,1.24.03,2.34-.54,3.29-.56.95-1.31,1.67-2.23,2.17-.86.46-1.64.85-2.36,1.18-.72.33-1.47.61-2.26.84s-1.65.43-2.59.62-2.04.36-3.31.53c-.27.04-.44.1-.49.19-.05.08-.11.27-.18.56-.07.25-.09.47-.08.65.02.19.2.38.54.59,2.05,1.32,3.9,2.47,5.54,3.44s3.19,1.83,4.65,2.57c1.45.74,2.89,1.44,4.31,2.08,1.42.64,2.93,1.27,4.54,1.89.48.21.74.46.77.77s-.09.73-.36,1.27l.02-.04h0ZM35.26,13.21c.38-.33.55-.76.51-1.3-.03-.54-.26-.89-.67-1.05-.99-.37-2.89-.72-5.7-1.05-.38-.04-.69.03-.95.22s-.51.44-.74.77c-.27.41-.39.68-.36.81.03.12.14.23.31.31.65.29,1.11.65,1.39,1.08.27.43.46,1.13.56,2.08.07.62.13.98.18,1.08s.21.09.49-.03c.99-.41,1.94-.88,2.85-1.4.91-.52,1.62-1.02,2.13-1.52Z"/><path d="M15.32,44.75c-.09.41-.24,1.35-.4,2.19.72-.06,1.37-.1,1.74-.1,1.27,0,2.34.47,2.34,2.43,0,1.75-.25,4.09-.85,5.31-.47.97-1.19,1.21-2.1,1.21-.57,0-1.27-.12-1.72-.22l-.18-1.1c.62.21,1.38.31,1.81.31.54,0,1-.12,1.31-.78.49-1.03.72-2.97.72-4.59,0-1.38-.65-1.63-1.59-1.63-.37,0-1,.04-1.68.1-.53,2.1-1.53,5.4-3.12,7.93l-1.06-.43c1.52-2.02,2.63-5.44,3.1-7.4-.81.09-1.56.16-1.96.21-.32.04-.91.12-1.28.16l-.12-1.15c.46.03.82.01,1.28,0,.49-.01,1.38-.09,2.29-.16.24-1.06.4-2.22.4-3.22l1.22.12c-.06.25-.12.54-.16.82h0ZM23.23,50.76l-1,.49c-.44-1.5-1.62-4.09-2.65-5.28l.96-.44c.91,1.18,2.21,3.87,2.69,5.24h0Z"/><path d="M33.81,45.19c-.65,1.02-2.06,3.56-2.82,5,.74-.69,1.54-.99,2.28-.99.96,0,1.68.6,1.72,1.75.03.91,0,2.03.04,2.77.04.76.56,1.09,1.24,1.09,1.71,0,2.71-2.09,3.07-3.6l.87.71c-.78,2.34-2,3.97-4.1,3.97-1.56,0-2.03-.99-2.07-1.82-.04-.87-.01-2-.06-2.84-.04-.66-.44-1.07-1.12-1.07-1.22,0-2.38,1.24-2.96,2.4-.46.87-1.1,2.63-1.29,3.35l-1.13-.4c1.09-2.97,4.34-9.02,5.15-10.43.16-.34.34-.68.5-1.09l1.16.49c-.13.18-.31.44-.47.72h0Z"/></g></svg>